<svg display="none" xmlns="http://www.w3.org/2000/svg">
<symbol id="back-top" viewBox="0 0 27 27">
<g clip-path="url(#clip0)">
<path d="M7.64015 12.9514C7.41096 13.1804 7.41096 13.5519 7.64015 13.7813C7.86916 14.0105 8.24087 14.0105 8.47006 13.7813L12.9148 9.33658L12.9148 21.1461C12.9148 21.4712 13.1785 21.7349 13.5035 21.7349C13.8288 21.7349 14.0923 21.4712 14.0923 21.1461L14.0923 9.34248L18.537 13.7872C18.6469 13.8975 18.7964 13.9594 18.9521 13.9594C19.1079 13.9594 19.257 13.8975 19.3671 13.7872C19.4783 13.677 19.5399 13.5259 19.5378 13.3692C19.5371 13.213 19.4759 13.0631 19.3671 12.9514L13.9217 7.50584C13.8107 7.39503 13.6601 7.33326 13.5035 7.33492C13.3474 7.33602 13.198 7.39724 13.0857 7.50584L7.64015 12.9514Z" fill="black"/>
<path d="M0.846472 13.4926C0.84555 18.612 3.92917 23.2277 8.65896 25.1868C13.3889 27.1455 18.833 26.062 22.4519 22.4409C27.3941 17.4987 27.3941 9.48618 22.4519 4.54416C17.5101 -0.397855 9.49754 -0.397854 4.55534 4.54416C2.17384 6.91219 0.838359 10.1343 0.846472 13.4926ZM24.9835 13.4926C24.9835 19.8212 19.8322 24.9723 13.5036 24.9723C7.17505 24.9723 2.02394 19.8212 2.02394 13.4926C2.02394 7.16406 7.17505 2.01277 13.5036 2.01277C19.8322 2.01277 24.9835 7.16406 24.9835 13.4926Z" fill="black"/>
</g>
<defs>
<clipPath id="clip0">
<rect width="27" height="27" fill="white" transform="translate(0 27) rotate(-90)"/>
</clipPath>
</defs>
</symbol>
</svg>