<svg width="408" height="408" viewBox="0 0 408 408" fill="none" xmlns="http://www.w3.org/2000/svg">
<path d="M0.263489 4.92568C0.670471 3.50629 1.52841 2.25793 2.70764 1.36929C3.8869 0.480641 5.32333 -1.25743e-06 6.79993 0H62.4919C94.7423 0.0203846 126.17 10.1794 152.33 29.0403L156.603 11.9506C156.875 10.8625 157.412 9.85853 158.166 9.02822C158.92 8.19792 159.868 7.56703 160.925 7.19178C161.982 6.81653 163.115 6.70856 164.224 6.8775C165.333 7.04645 166.382 7.48705 167.28 8.16005L203.15 35.0625C216.374 44.9369 226.059 58.8133 230.769 74.6307L235.775 91.3169C239.867 104.874 248.349 116.686 259.886 124.897C260.057 122.735 260.142 120.571 260.142 118.405C260.141 103.383 256.057 88.6436 248.326 75.7637L245.768 71.4967C245.149 70.4648 244.815 69.2872 244.8 68.0842C244.785 66.8811 245.09 65.6956 245.683 64.6487C246.276 63.6018 247.136 62.7309 248.175 62.1251C249.215 61.5192 250.397 61.2 251.6 61.2H252.764C261.067 61.2183 269.252 63.1697 276.669 66.8997C274.82 45.8211 277.952 24.603 285.811 4.9572L286.092 4.26035C286.524 3.18635 287.224 2.24055 288.124 1.51256C289.025 0.784572 290.096 0.2985 291.236 0.100399C292.377 -0.0977017 293.55 -0.00126944 294.643 0.380558C295.736 0.762386 296.713 1.41696 297.482 2.28228L320.262 27.9101C339.617 49.6696 351.224 77.2248 353.271 106.275L365.049 102.349C366.182 101.971 367.394 101.899 368.564 102.138C369.734 102.378 370.82 102.921 371.713 103.714C372.606 104.506 373.275 105.52 373.652 106.653C374.029 107.786 374.101 108.998 373.861 110.168L373.732 110.796C369.827 130.185 362.31 148.668 351.573 165.279C359.454 165.58 367.201 163.172 373.524 158.457L383.52 150.96C384.417 150.287 385.467 149.847 386.575 149.678C387.684 149.509 388.817 149.616 389.874 149.991C390.931 150.366 391.878 150.997 392.632 151.827C393.386 152.657 393.924 153.661 394.196 154.749L397.24 166.906C400.221 178.927 400.175 191.499 397.105 203.497C394.036 215.495 388.04 226.545 379.654 235.658L403.725 245.286C404.846 245.735 405.827 246.473 406.568 247.426C407.309 248.379 407.782 249.512 407.941 250.708C408.099 251.905 407.936 253.122 407.469 254.234C407.001 255.347 406.246 256.315 405.28 257.04C392.524 266.607 377.817 273.249 362.205 276.495C391.844 311.277 408.084 355.502 408 401.2C408 402.093 407.824 402.977 407.482 403.802C407.14 404.627 406.639 405.377 406.008 406.008C405.377 406.64 404.627 407.141 403.802 407.482C402.977 407.824 402.093 408 401.2 408H374C373.107 408 372.222 407.824 371.397 407.482C370.572 407.141 369.823 406.64 369.191 406.008C368.56 405.377 368.059 404.627 367.717 403.802C367.376 402.977 367.2 402.093 367.2 401.2C367.14 368.093 358.62 335.55 342.448 306.662C337.793 328.829 326.801 349.168 310.808 365.208C310.097 365.92 309.236 366.464 308.289 366.803C307.342 367.142 306.331 367.266 305.33 367.167C304.329 367.068 303.362 366.748 302.499 366.23C301.637 365.712 300.9 365.009 300.342 364.172L292.208 351.972C274.097 375.734 249.647 393.903 221.669 404.388L213.186 407.568C211.883 408.056 210.462 408.133 209.114 407.788C207.766 407.443 206.556 406.692 205.648 405.638C204.74 404.584 204.177 403.276 204.035 401.892C203.893 400.508 204.18 399.113 204.856 397.897L221.074 368.709C225.746 360.336 228.646 351.092 229.594 341.551C230.542 332.01 229.518 322.376 226.584 313.247L211.611 314.608C195.845 316.047 180.659 321.268 167.34 329.827C154.021 338.385 142.963 350.03 135.104 363.773C134.319 365.147 133.08 366.204 131.599 366.763C130.119 367.321 128.49 367.345 126.993 366.832C125.497 366.318 124.226 365.299 123.4 363.95C122.574 362.6 122.245 361.005 122.468 359.438L128.329 318.415L120.356 317.085C75.5501 309.698 35.3426 285.256 8.16 248.88C7.36774 247.823 6.90015 246.559 6.81439 245.242C6.72861 243.924 7.02835 242.61 7.677 241.46C8.32568 240.309 9.2952 239.373 10.4672 238.765C11.6392 238.156 12.9629 237.902 14.2769 238.034L42.8187 240.89C64.6684 243.022 86.6684 238.785 106.162 228.688L89.369 200.699C88.6431 199.489 88.3114 198.083 88.4201 196.676C88.5288 195.27 89.0724 193.931 89.9756 192.847C90.8787 191.763 92.0967 190.987 93.4608 190.626C94.8248 190.265 96.2674 190.338 97.5884 190.833C124.097 200.796 152.187 205.89 180.506 205.87C186.061 205.87 191.652 205.671 197.216 205.277C163.73 167.93 118.854 142.677 69.5513 133.435L46.3465 129.083C44.9786 128.827 43.7224 128.157 42.7475 127.164C41.7726 126.17 41.1258 124.902 40.8946 123.53C40.6634 122.157 40.8589 120.747 41.4547 119.489C42.0504 118.231 43.0177 117.187 44.226 116.496L85.6042 92.8513C64.1901 60.5064 36.0892 33.1293 3.19656 12.5666C1.94431 11.7842 0.980774 10.6154 0.451599 9.23686C-0.0775757 7.85835 -0.143585 6.34505 0.263489 4.92568ZM380.686 394.4H394.273C392.689 350.519 374.963 308.766 344.493 277.149L319.181 250.783L337.929 275.156C364.238 309.488 379.184 351.172 380.686 394.4ZM60.8388 41.1582C76.0806 56.398 89.5427 73.3192 100.966 91.5966C101.452 92.373 101.775 93.2393 101.917 94.1437C102.06 95.0481 102.018 95.9719 101.794 96.8597C101.571 97.7476 101.171 98.5811 100.617 99.3104C100.064 100.04 99.3687 100.65 98.5738 101.104L67.0345 119.127L72.0577 120.069C128.881 130.719 179.996 161.406 216.11 206.552C216.87 207.503 217.361 208.64 217.532 209.845C217.703 211.05 217.547 212.279 217.081 213.404C216.615 214.528 215.856 215.507 214.882 216.238C213.909 216.969 212.757 217.425 211.547 217.559L208.093 217.941C198.932 218.958 189.723 219.469 180.506 219.47C156.808 219.486 133.23 216.116 110.487 209.462L121.431 227.701C121.89 228.467 122.194 229.316 122.326 230.199C122.457 231.082 122.413 231.983 122.197 232.849C121.98 233.716 121.595 234.531 121.063 235.249C120.532 235.966 119.864 236.572 119.098 237.031C95.7432 250.973 68.5368 257.068 41.466 254.422L29.4088 253.216C53.9404 279.998 86.7557 297.766 122.592 303.67L137.118 306.093C138.87 306.385 140.438 307.351 141.487 308.784C142.536 310.217 142.983 312.004 142.731 313.762L139.683 335.099C158.377 315.605 183.483 303.518 210.38 301.064L230.584 299.228C232.043 299.095 233.505 299.437 234.754 300.202C236.002 300.967 236.97 302.115 237.514 303.475C242.161 315.031 244.164 327.48 243.376 339.91C242.589 352.341 239.03 364.437 232.962 375.314L225.969 387.899C250.655 376.689 271.707 358.789 286.742 336.228C287.363 335.297 288.204 334.533 289.191 334.005C290.178 333.476 291.28 333.2 292.4 333.2C293.519 333.2 294.621 333.476 295.608 334.005C296.595 334.533 297.437 335.297 298.058 336.228L306.862 349.434C320.103 333.799 328.398 314.581 330.691 294.22L331.265 289.019C329.926 287.139 328.554 285.282 327.15 283.448L320.588 274.917C305.087 281.805 292.464 293.868 284.882 309.041L272.718 302.959C281.21 285.971 295.047 272.243 312.102 263.885L302.677 251.633C263.115 251.974 223.699 256.467 185.075 265.038L182.125 251.762C218.348 243.723 255.26 239.185 292.351 238.209L236.311 165.357L231.113 159.359C229.996 158.07 228.856 156.806 227.724 155.533L205.318 146.571C176.163 134.914 145.721 126.776 114.638 122.331L116.561 108.868C146.68 113.175 176.222 120.834 204.64 131.703C180.926 109.214 154.47 89.8079 125.897 73.9442L132.502 62.0558C154.922 74.5073 176.1 89.0722 195.749 105.552L183.949 70.1504L196.851 65.8497L216.212 123.934C224.972 132.366 233.365 141.206 241.39 150.453L241.494 150.572C242.012 150.881 242.486 151.257 242.905 151.691L307.386 218.859C297.832 182.745 295.07 145.171 299.241 108.049L312.758 109.551C308.327 148.996 312.089 188.931 323.808 226.854L327.934 240.263L329.696 242.099C333.071 223.282 342.105 205.941 355.591 192.392L365.208 202.008C353.036 214.231 345.126 230.051 342.651 247.122L341.598 254.496L351.229 264.529C363.636 263.061 375.632 259.162 386.531 253.056L364.674 244.314C363.57 243.872 362.601 243.149 361.864 242.216C361.127 241.283 360.648 240.173 360.473 238.997C360.299 237.821 360.436 236.62 360.871 235.513C361.306 234.406 362.023 233.433 362.951 232.69C372.064 225.374 378.893 215.603 382.631 204.531C386.369 193.459 386.86 181.549 384.047 170.206L383.49 167.982L381.683 169.338C375.497 173.979 368.278 177.051 360.644 178.29C353.01 179.529 345.19 178.899 337.853 176.452C336.831 176.112 335.903 175.534 335.148 174.765C334.393 173.996 333.831 173.058 333.51 172.03C333.188 171.001 333.116 169.911 333.298 168.849C333.48 167.786 333.913 166.783 334.559 165.921C345.07 151.863 352.923 136.004 357.733 119.123L348.95 122.051C347.928 122.392 346.839 122.485 345.774 122.322C344.709 122.16 343.698 121.746 342.824 121.116C341.95 120.486 341.238 119.658 340.747 118.699C340.256 117.739 340 116.677 340 115.6C340.01 86.6027 329.369 58.6119 310.097 36.9451L294.963 19.9186C289.552 37.784 288.336 56.6566 291.407 75.0689L292.308 80.484C292.544 81.905 292.323 83.3643 291.677 84.6516C291.03 85.9389 289.991 86.9877 288.71 87.6466C287.43 88.3056 285.972 88.5408 284.549 88.3182C283.126 88.0956 281.81 87.4268 280.792 86.4082C276.147 81.7861 270.434 78.3806 264.16 76.4934C273.278 95.3946 275.984 116.754 271.868 137.332C271.663 138.357 271.225 139.322 270.587 140.15C269.948 140.979 269.128 141.649 268.188 142.108C267.249 142.568 266.216 142.804 265.17 142.8C264.125 142.795 263.094 142.55 262.159 142.082C252.751 137.359 244.404 130.768 237.628 122.712C230.853 114.656 225.79 105.303 222.749 95.2249L217.743 78.5407C213.863 65.5097 205.884 54.0775 194.99 45.9423L167.313 25.1846L162.997 42.4494C162.718 43.5662 162.16 44.5939 161.375 45.4361C160.59 46.2783 159.604 46.9075 158.51 47.2646C157.415 47.6218 156.248 47.6953 155.117 47.4781C153.987 47.261 152.93 46.7604 152.046 46.0232C126.896 25.0902 95.2133 13.6193 62.4919 13.6H28.8576C40.1858 21.9813 50.8757 31.1927 60.8388 41.1582Z" fill="url(#paint0_linear)"/>
<defs>
<linearGradient id="paint0_linear" x1="724" y1="-30.5" x2="55.4997" y2="408" gradientUnits="userSpaceOnUse">
<stop stop-color="#B52B00" stop-opacity="0.61"/>
<stop offset="0.952498" stop-color="#604500" stop-opacity="0"/>
</linearGradient>
</defs>
</svg>
