<svg width="115" height="115" viewBox="0 0 115 115" fill="none" xmlns="http://www.w3.org/2000/svg">
<path d="M114.926 1.38837C114.811 0.988291 114.569 0.636427 114.237 0.385951C113.904 0.135475 113.5 -3.54423e-07 113.083 0H97.3859C88.2957 0.00574565 79.4373 2.8692 72.0637 8.18536L70.8595 3.36843C70.7828 3.06173 70.6315 2.77875 70.4189 2.54472C70.2064 2.31069 69.9393 2.13286 69.6413 2.0271C69.3434 1.92133 69.024 1.89089 68.7114 1.93851C68.3989 1.98613 68.103 2.11032 67.8501 2.30001L57.7395 9.88281C54.0123 12.666 51.2823 16.5773 49.9549 21.0356L48.5438 25.7388C47.3905 29.56 44.9998 32.8896 41.7477 35.2038C41.6997 34.5943 41.6757 33.9843 41.6756 33.3739C41.6759 29.1398 42.8271 24.9853 45.0062 21.355L45.7273 20.1523C45.9016 19.8614 45.9957 19.5295 45.9999 19.1904C46.0041 18.8513 45.9183 18.5171 45.7511 18.2221C45.584 17.927 45.3416 17.6815 45.0486 17.5107C44.7556 17.34 44.4225 17.25 44.0834 17.25H43.7551C41.4149 17.2552 39.108 17.8052 37.0172 18.8565C37.5384 12.9153 36.6557 6.93466 34.4404 1.39725L34.3613 1.20083C34.2394 0.898115 34.0423 0.631529 33.7885 0.426335C33.5348 0.221142 33.2328 0.0841359 32.9113 0.0282987C32.5898 -0.0275385 32.2593 -0.000357807 31.9512 0.107265C31.6431 0.214888 31.3676 0.39939 31.1508 0.643288L24.73 7.86683C19.2745 14 16.003 21.7668 15.4261 29.9549L12.1062 28.8484C11.7869 28.7419 11.4452 28.7214 11.1155 28.789C10.7858 28.8565 10.4796 29.0096 10.2279 29.233C9.97614 29.4564 9.78766 29.7422 9.68141 30.0615C9.57516 30.3809 9.55488 30.7226 9.6226 31.0522L9.65899 31.2291C10.7595 36.6944 12.8783 41.904 15.9048 46.586C13.6832 46.6708 11.4996 45.9922 9.71748 44.6631L6.90004 42.55C6.64719 42.3604 6.35134 42.2362 6.03887 42.1885C5.7264 42.1409 5.407 42.1713 5.10911 42.277C4.81123 42.3827 4.54411 42.5604 4.33156 42.7944C4.11901 43.0283 3.96762 43.3112 3.89088 43.6178L3.03291 47.0447C2.19271 50.4328 2.20571 53.9763 3.07076 57.3582C3.9358 60.7401 5.6259 63.8546 7.98976 66.4232L1.20491 69.1371C0.889064 69.2635 0.612536 69.4716 0.403722 69.7402C0.194908 70.0087 0.0613308 70.328 0.0167069 70.6653C-0.0279171 71.0025 0.01802 71.3456 0.149801 71.6592C0.281582 71.9728 0.494458 72.2457 0.766572 72.4499C4.3622 75.1467 8.50741 77.0188 12.9079 77.9335C4.55383 87.7374 -0.0237746 100.203 9.28631e-05 113.083C8.56264e-05 113.335 0.0496566 113.584 0.145976 113.817C0.242294 114.049 0.383475 114.261 0.561455 114.439C0.739435 114.617 0.95073 114.758 1.18327 114.854C1.41582 114.95 1.66506 115 1.91676 115H9.58342C9.83512 115 10.0844 114.95 10.3169 114.854C10.5494 114.758 10.7607 114.617 10.9387 114.439C11.1167 114.261 11.2579 114.049 11.3542 113.817C11.4505 113.584 11.5001 113.335 11.5001 113.083C11.5169 103.752 13.9184 94.5791 18.4767 86.4365C19.7888 92.6847 22.8869 98.4175 27.3948 102.939C27.5953 103.139 27.8378 103.293 28.1049 103.388C28.3719 103.484 28.6567 103.519 28.9389 103.491C29.2211 103.463 29.4936 103.372 29.7367 103.227C29.9798 103.081 30.1875 102.882 30.3448 102.646L32.6373 99.2079C37.7424 105.906 44.6339 111.027 52.5197 113.982L54.9107 114.878C55.278 115.016 55.6786 115.037 56.0586 114.94C56.4386 114.843 56.7795 114.631 57.0355 114.334C57.2915 114.037 57.4502 113.669 57.4901 113.278C57.53 112.888 57.4493 112.495 57.2588 112.152L52.6876 103.925C51.3706 101.565 50.5531 98.9597 50.2859 96.2705C50.0187 93.5812 50.3075 90.8657 51.1344 88.2928L55.3547 88.6764C59.7986 89.082 64.079 90.5534 67.8331 92.9658C71.5871 95.3783 74.7039 98.6605 76.9192 102.534C77.1404 102.921 77.4898 103.219 77.9071 103.377C78.3244 103.534 78.7835 103.541 79.2053 103.396C79.6272 103.252 79.9853 102.964 80.2181 102.584C80.4509 102.203 80.5438 101.754 80.4807 101.312L78.8289 89.7492L81.0762 89.3744C93.7052 87.2924 105.038 80.403 112.7 70.1499C112.923 69.8522 113.055 69.4959 113.079 69.1245C113.103 68.753 113.019 68.3826 112.836 68.0584C112.653 67.7342 112.38 67.4703 112.05 67.2988C111.719 67.1273 111.346 67.0558 110.976 67.0928L102.931 67.8978C96.7724 68.4989 90.5714 67.3045 85.0768 64.4586L89.8102 56.5695C90.0148 56.2285 90.1083 55.8322 90.0777 55.4357C90.047 55.0392 89.8938 54.662 89.6392 54.3565C89.3847 54.0509 89.0414 53.8321 88.6569 53.7304C88.2724 53.6287 87.8658 53.6491 87.4934 53.7888C80.0216 56.5968 72.1042 58.0326 64.1222 58.0271C62.5562 58.0271 60.9803 57.9711 59.412 57.86C68.8507 47.3332 81.4994 40.2153 95.3961 37.6105L101.937 36.3838C102.322 36.3115 102.676 36.1226 102.951 35.8427C103.226 35.5627 103.408 35.2052 103.473 34.8184C103.538 34.4315 103.483 34.034 103.315 33.6795C103.148 33.325 102.875 33.0305 102.534 32.8359L90.8714 26.1713C96.9072 17.0545 104.828 9.33793 114.099 3.54204C114.452 3.32151 114.724 2.99208 114.873 2.60353C115.022 2.21498 115.04 1.78843 114.926 1.38837ZM7.69893 111.167H3.86922C4.31546 98.7982 9.31185 87.0297 17.9003 78.1181L25.0347 70.6865L19.7504 77.5561C12.3349 87.2333 8.1221 98.9823 7.69893 111.167ZM97.8518 11.601C93.5557 15.8965 89.7612 20.666 86.5413 25.8177C86.4045 26.0365 86.3134 26.2807 86.2733 26.5356C86.2332 26.7905 86.245 27.0509 86.3079 27.3012C86.3709 27.5514 86.4838 27.7864 86.6398 27.9919C86.7958 28.1975 86.9917 28.3694 87.2157 28.4974L96.1055 33.5773L94.6896 33.8429C78.6732 36.8447 64.2657 45.4944 54.0867 58.2193C53.8724 58.4873 53.7339 58.8078 53.6857 59.1475C53.6376 59.4872 53.6815 59.8336 53.8129 60.1506C53.9442 60.4675 54.1583 60.7434 54.4327 60.9494C54.707 61.1554 55.0317 61.284 55.3727 61.3218L56.3464 61.4294C58.9284 61.7161 61.5243 61.86 64.1222 61.8605C70.8016 61.8649 77.4473 60.915 83.858 59.0394L80.7732 64.1805C80.6437 64.3963 80.558 64.6356 80.5209 64.8845C80.4838 65.1335 80.4962 65.3874 80.5573 65.6316C80.6183 65.8758 80.7269 66.1055 80.8767 66.3078C81.0266 66.51 81.2148 66.6808 81.4307 66.8103C88.0136 70.7399 95.682 72.4578 103.312 71.7122L106.711 71.3721C99.7962 78.921 90.5468 83.9291 80.4459 85.5933L76.3514 86.2761C75.8577 86.3584 75.4157 86.6307 75.1201 87.0346C74.8244 87.4386 74.6985 87.9422 74.7693 88.4377L75.6285 94.452C70.3594 88.9573 63.2831 85.5506 55.7018 84.8587L50.0069 84.3412C49.5958 84.3038 49.1836 84.4001 48.8317 84.6158C48.4798 84.8315 48.2069 85.1551 48.0537 85.5384C46.7439 88.7955 46.1793 92.3044 46.4013 95.8081C46.6233 99.3117 47.6262 102.721 49.3367 105.787L51.3076 109.334C44.3498 106.174 38.4159 101.129 34.1781 94.7702C34.0031 94.5076 33.766 94.2924 33.4878 94.1435C33.2096 93.9946 32.8989 93.9167 32.5834 93.9167C32.2679 93.9167 31.9572 93.9946 31.679 94.1435C31.4008 94.2924 31.1637 94.5076 30.9887 94.7702L28.5071 98.4925C24.7748 94.0856 22.4369 88.6685 21.7906 82.9298L21.6286 81.4636C22.0061 80.9339 22.3928 80.4105 22.7887 79.8933L24.6382 77.489C29.0073 79.4302 32.5653 82.8305 34.7025 87.1071L38.131 85.3929C35.7374 80.6045 31.8372 76.7351 27.0301 74.3794L29.6865 70.9261C40.8375 71.0221 51.9477 72.2885 62.8343 74.7044L63.6658 70.9623C53.4559 68.6965 43.0518 67.4173 32.5971 67.1423L48.3927 46.608L49.8578 44.9174C50.1727 44.5542 50.494 44.1978 50.8131 43.8391L57.1284 41.3129C65.3461 38.0271 73.9266 35.7335 82.6878 34.4807L82.1457 30.686C73.6564 31.8999 65.3295 34.0586 57.3197 37.1221C64.0036 30.7834 71.4607 25.3135 79.5142 20.8421L77.6525 17.4912C71.3333 21.0008 65.3639 25.1061 59.8255 29.7512L63.1517 19.7728L59.5151 18.5606L54.0579 34.9322C51.5888 37.3092 49.2232 39.8007 46.9611 42.407L46.9319 42.4406C46.7859 42.5276 46.6521 42.6337 46.5341 42.756L28.3594 61.6881C31.0523 51.5091 31.8307 40.9184 30.655 30.455L26.8451 30.8783C28.0941 41.9963 27.0337 53.2525 23.7305 63.9417L22.5677 67.7211L22.0709 68.2386C21.1196 62.9348 18.5734 58.0471 14.772 54.2281L12.0615 56.9386C15.4923 60.3838 17.7217 64.8427 18.4193 69.6544L18.7163 71.7329L16.0016 74.5608C12.5046 74.147 9.12345 73.0482 6.05132 71.3271L12.2119 68.8629C12.5231 68.7384 12.7962 68.5345 13.0039 68.2716C13.2117 68.0087 13.3469 67.6958 13.396 67.3643C13.4452 67.0328 13.4065 66.6942 13.284 66.3823C13.1614 66.0704 12.9592 65.7961 12.6975 65.5867C10.129 63.5246 8.20427 60.7706 7.15066 57.6497C6.09705 54.5289 5.95857 51.1718 6.75159 47.9748L6.90858 47.348L7.41781 47.7299C9.16142 49.0382 11.1963 49.9041 13.348 50.2533C15.4996 50.6026 17.7039 50.4248 19.7718 49.7353C20.06 49.6394 20.3213 49.4764 20.5342 49.2596C20.747 49.0429 20.9053 48.7787 20.996 48.4888C21.0867 48.1988 21.1071 47.8915 21.0557 47.5921C21.0043 47.2927 20.8824 47.0099 20.7002 46.7668C17.7377 42.8046 15.5241 38.3344 14.1684 33.5764L16.644 34.4016C16.9321 34.4976 17.2389 34.5238 17.5391 34.478C17.8394 34.4322 18.1244 34.3158 18.3708 34.1382C18.6171 33.9606 18.8178 33.727 18.9562 33.4567C19.0946 33.1864 19.1667 32.887 19.1667 32.5833C19.1638 24.4101 22.1633 16.5205 27.5952 10.4135L31.861 5.6143C33.386 10.6499 33.7289 15.9694 32.8633 21.1591L32.6094 22.6854C32.5427 23.086 32.605 23.4973 32.7873 23.8601C32.9695 24.223 33.2622 24.5186 33.6233 24.7043C33.9843 24.8901 34.395 24.9563 34.7962 24.8936C35.1973 24.8309 35.5682 24.6424 35.8553 24.3553C37.1644 23.0525 38.7746 22.0926 40.5432 21.5606C37.9731 26.8882 37.2103 32.9085 38.3705 38.7087C38.4282 38.9978 38.5518 39.2696 38.7317 39.5031C38.9116 39.7366 39.143 39.9254 39.4077 40.055C39.6725 40.1845 39.9636 40.2512 40.2583 40.2499C40.5531 40.2487 40.8436 40.1794 41.1072 40.0476C43.7589 38.7164 46.1115 36.8586 48.0214 34.5879C49.9312 32.3171 51.3583 29.681 52.2154 26.8403L53.6265 22.1377C54.7199 18.4647 56.969 15.2424 60.0395 12.9494L67.8407 7.09859L69.0573 11.9649C69.1359 12.2797 69.2933 12.5694 69.5145 12.8067C69.7357 13.0441 70.0136 13.2215 70.3221 13.3221C70.6305 13.4228 70.9595 13.4435 71.2782 13.3823C71.5968 13.3211 71.8948 13.18 72.144 12.9722C79.2327 7.07199 88.1629 3.83878 97.3859 3.83333H106.866C103.673 6.19571 100.66 8.79206 97.8518 11.601Z" fill="url(#paint0_linear)"/>
<defs>
<linearGradient id="paint0_linear" x1="-89.0686" y1="-8.59681" x2="99.3567" y2="115" gradientUnits="userSpaceOnUse">
<stop stop-color="#B52B00" stop-opacity="0.61"/>
<stop offset="0.952498" stop-color="#604500" stop-opacity="0"/>
</linearGradient>
</defs>
</svg>
