<svg id="Capa_1" enable-background="new 0 0 512 512" height="512" viewBox="0 0 512 512" width="512" xmlns="http://www.w3.org/2000/svg"><g><g><g><g><g><path d="m430.859 82.848h-175.229c-11.261 0-20.39 9.129-20.39 20.39v301.5c0 11.261 9.129 20.39 20.39 20.39h228.48c11.261 0 20.39-9.129 20.39-20.39v-248.249c0-5.408-2.148-10.594-5.972-14.418l-53.251-53.251c-3.824-3.824-9.01-5.972-14.418-5.972z" fill="#f4fbff"/></g></g><g><path d="m498.528 142.071-53.251-53.251c-1.235-1.235-2.623-2.274-4.104-3.143v319.062c0 11.261-9.129 20.39-20.39 20.39h63.327c11.261 0 20.39-9.129 20.39-20.39v-248.25c0-5.408-2.148-10.594-5.972-14.418z" fill="#e4f6ff"/></g><path d="m498.528 142.071-53.251-53.251c-2.571-2.571-5.765-4.363-9.222-5.275v55.108c0 6.981 5.66 12.641 12.641 12.641h55.108c-.913-3.457-2.705-6.651-5.276-9.223z" fill="#e28086"/></g><g><g><path d="m258.464 55.553c0-13.147-10.658-23.804-23.804-23.804h-82.031c-30.257 0-54.786 24.528-54.786 54.786v60.826h193.268v-59.964c0-13.147-10.658-23.804-23.804-23.804h-.802c-4.441-.001-8.041-3.6-8.041-8.04z" fill="#efc984"/><path d="m271.277 296.402-76.769-2.698-76.801 2.698-70.276 22.25c-23.774 7.527-39.931 29.59-39.931 54.527v86.066c0 11.601 9.405 21.006 21.006 21.006h331.973c11.601 0 21.006-9.405 21.006-21.006v-86.066c0-24.938-16.157-47.001-39.932-54.528z" fill="#4a80aa"/><path d="m341.554 318.652-70.276-22.25-63.918-2.247.591 20.58 70.276 22.25c23.774 7.527 39.932 29.59 39.932 54.528v86.066c0 .908-.077 1.796-.189 2.673h42.509c11.602 0 21.006-9.405 21.006-21.006v-86.066c0-24.938-16.157-47.001-39.931-54.528z" fill="#407093"/><g><path d="m271.277 296.402-76.769-2.698-76.801 2.698c-3.245 56.533 57.054 145.547 80.116 183.846 23.063-38.299 76.699-127.313 73.454-183.846z" fill="#e4f6ff"/></g><path d="m230.5 452.114-23.83-90.023h-24.323l-20.188 90.812 35.665 27.345z" fill="#ffe07d"/><g><g><g><g><g><path d="m237.503 292.191v-54.315h-86.052v54.315c0 23.763 43.026 49.672 43.026 49.672s43.026-25.909 43.026-49.672z" fill="#ffddce"/></g></g></g></g><path d="m291.111 139.378h-16.449c-9.148 0-16.564-7.416-16.564-16.564v-9.065c0-11.916-11.659-20.342-22.973-16.602-26.387 8.721-54.88 8.723-81.268.006l-.031-.01c-11.314-3.738-22.971 4.688-22.971 16.603v9.069c0 9.148-7.416 16.564-16.564 16.564h-16.448v27.086c0 6.921 5.611 12.532 12.532 12.532 2.184 0 3.961 1.711 4.098 3.89 2.642 41.897 37.44 75.065 80.003 75.065 42.564 0 77.361-33.168 80.003-75.065.137-2.179 1.915-3.89 4.098-3.89 6.921 0 12.532-5.611 12.532-12.532v-27.087z" fill="#ffddce"/><path d="m267.306 63.592h-.802c-4.44 0-8.04-3.599-8.04-8.04 0-13.147-10.658-23.804-23.804-23.804h-6.877v115.612h63.327v-59.963c.001-13.147-10.657-23.805-23.804-23.805z" fill="#eabc6b"/><path d="m274.662 139.378c-9.148 0-16.564-7.416-16.564-16.564v-9.065c0-11.916-11.659-20.342-22.973-16.602-2.429.803-4.88 1.506-7.342 2.161v79.689c-.538 35.591-24.251 65.559-56.722 75.471 7.408 2.26 15.267 3.484 23.416 3.484 42.564 0 77.361-33.168 80.003-75.065.137-2.179 1.915-3.89 4.098-3.89 6.921 0 12.532-5.611 12.532-12.532v-27.087z" fill="#ffcbbe"/></g><g><g><g><g><g><path d="m194.477 325.406-22.911 19.816c-5.657 4.893-14.276 3.966-18.763-2.018l-35.095-46.802 12.664-11.033c6.199-5.4 15.475-5.247 21.492.356z" fill="#f4fbff"/></g></g></g></g></g><g><g><g><g><g><g><path d="m194.508 325.406 22.911 19.816c5.657 4.893 14.276 3.966 18.763-2.018l35.095-46.802-12.664-11.033c-6.199-5.4-15.475-5.247-21.492.356z" fill="#f4fbff"/></g></g></g></g></g></g></g><g fill="#365e7d"><path d="m117.708 296.402-5.6 1.041c-12.362 2.298-23.138 9.982-29.053 21.078-2.602 4.882-4.511 10.323-4.511 15.78 0 8.219 12.714 18.394 20.427 23.81 2.647 1.859 3.058 5.936.821 8.355-4.364 4.719-9.794 12.747-8.151 22.316 4.752 27.665 54.489 68.436 85.485 91.466h20.697c-23.061-38.299-83.36-127.313-80.115-183.846z"/><path d="m218.514 480.248c30.997-23.03 80.734-63.801 85.485-91.466 1.644-9.569-3.787-17.597-8.151-22.316-2.237-2.419-1.826-6.496.821-8.355 7.713-5.416 20.427-15.591 20.427-23.81 0-4.284-1.177-8.559-2.942-12.561-5.73-12.992-18.063-21.862-32.125-23.832l-10.753-1.506c3.245 56.533-50.391 145.547-73.453 183.846z"/></g></g><path d="m169.074 346.904 13.273 15.187h24.323l12.979-15.316-25.141-21.369z" fill="#ffd064"/></g><g><path d="m336.082 209.463c5.642 0 11.082 1.661 15.732 4.803 3.433 2.317 8.095 1.416 10.414-2.017 2.319-3.432 1.416-8.094-2.016-10.413-7.14-4.823-15.484-7.373-24.129-7.373-23.791 0-43.146 19.355-43.146 43.146s19.355 43.146 43.146 43.146c11.014 0 21.033-4.205 28.202-12.74 2.663-3.173 2.25-7.903-.922-10.566-3.173-2.663-7.904-2.25-10.567.922-4.315 5.144-10.133 7.385-16.713 7.385-15.52 0-28.146-12.626-28.146-28.146s12.625-28.147 28.145-28.147z"/><path d="m413.963 281.258c3.185 0 6.024-2.012 7.078-5.02l25.341-72.297c1.37-3.908-.688-8.188-4.597-9.559-3.908-1.368-8.188.688-9.559 4.598l-18.193 51.904-17.793-51.776c-1.347-3.918-5.614-6.002-9.53-4.655-3.917 1.346-6.001 5.613-4.655 9.53l24.815 72.212c1.038 3.021 3.875 5.053 7.07 5.062.008.001.016.001.023.001z"/><path d="m343.817 311.501-38.901-12.317c-13.316-9.446-25.39-8.781-30.392-9.902l-10.984-9.57c-5.284-4.603-12.053-6.445-18.537-5.594v-24.766c20.227-14.313 34.221-36.974 36.733-63.104 9.551-1.519 16.875-9.812 16.875-19.784 0-16.436 0-63.877 0-79.067 0-17.262-14.043-31.305-31.304-31.305h-.802c-.297 0-.54-.242-.54-.54 0-17.261-14.043-31.304-31.304-31.304h-82.032c-34.344 0-62.286 27.941-62.286 62.285v79.931c0 9.972 7.324 18.266 16.875 19.784 2.511 26.13 16.506 48.791 36.733 63.104v24.762c-6.474-.841-13.23 1.004-18.505 5.599l-11.121 9.689c-2.135.536-9.764 1.088-18.844 6.17l-50.313 15.93c-27.017 8.553-45.168 33.339-45.168 61.677v86.066c0 15.718 12.788 28.506 28.506 28.506h331.973c15.718 0 28.506-12.788 28.506-28.506v-86.066c0-28.338-18.151-53.124-45.168-61.678zm-90.13-20.477 7.409 6.454c-32.004 41.698-31.416 45.424-37.296 42.981l-18.011-15.309 36.337-33.837c.107-.088.214-.177.319-.27.028-.024.052-.052.079-.077 3.216-2.741 7.946-2.745 11.163.058zm8.375 30.168c-4.964 28.436-19.203 61.496-34.357 91.054l-12.783-48.291 7.163-8.453c7.893 1.494 15.593-1.792 20.098-7.799zm-67.57 14.116 14.451 12.499-5.748 6.784h-17.442l-5.834-6.677zm0-20.136-35.542-33.097v-24.17c10.889 4.85 22.918 7.546 35.526 7.546s24.637-2.696 35.526-7.545v24.198zm-89.149-228.638c0-26.073 21.212-47.285 47.286-47.285h82.032c8.99 0 16.304 7.314 16.304 16.305 0 8.568 6.971 15.539 15.54 15.539h.802c8.99 0 16.304 7.314 16.304 16.305v44.481h-8.948c-4.998 0-9.064-4.066-9.064-9.064v-9.065c0-16.963-16.569-29.096-32.827-23.723-24.686 8.158-51.876 8.16-76.473.035-.04-.014-.08-.027-.12-.04-16.186-5.348-32.823 6.681-32.823 23.725v9.068c0 4.998-4.066 9.064-9.064 9.064h-8.949zm16.615 95.882c-.386-6.123-5.474-10.919-11.583-10.919-2.775 0-5.032-2.258-5.032-5.032v-19.586h8.949c13.269 0 24.064-10.795 24.064-24.064v-9.068c0-6.941 6.811-11.562 13.029-9.512.04.014.08.027.12.04 27.722 9.158 58.255 9.155 85.975-.006 6.482-2.139 13.119 2.681 13.119 9.48v9.065c0 13.27 10.795 24.064 24.064 24.064h8.948v19.586c0 2.774-2.257 5.032-5.032 5.032-6.11 0-11.198 4.796-11.583 10.919-2.406 38.151-34.26 68.036-72.519 68.036s-70.112-29.884-72.519-68.035zm13.341 108.607c3.209-2.796 7.926-2.797 11.141-.075.034.03.063.064.097.094.093.08.192.162.31.259l36.349 33.848-18.197 15.381c-2.147.798-4.696.173-6.195-1.824l-30.914-41.227zm11.504 56.681c4.453 5.937 12.051 9.23 19.865 7.845l7.534 8.621-10.073 45.311c-15.771-28.431-30.892-60.184-36.624-87.512zm32.822 125.047c-16.063-12.017-30.231-23.639-42.129-34.564-3.051-2.802-7.795-2.601-10.597.452-2.801 3.051-2.599 7.795.452 10.597 8.235 7.562 17.507 15.432 27.691 23.516h-77.869v-41.645c0-4.143-3.358-7.5-7.5-7.5s-7.5 3.357-7.5 7.5v41.645h-33.667c-7.447 0-13.506-6.059-13.506-13.506v-86.066c0-21.768 13.943-40.807 34.695-47.377l25.363-8.03c-2.66 5.727-4.014 11.276-4.014 16.528 0 12.189 14.789 23.646 21.821 28.678-7.126 8.419-10.18 17.963-8.615 27.073 1.654 9.633 7.54 20.488 17.991 33.188 2.632 3.2 7.358 3.659 10.557 1.025 3.198-2.632 3.657-7.358 1.025-10.557-10.748-13.06-13.975-21.454-14.79-26.195-1.099-6.399 2.8-12.208 6.265-15.955 2.546-2.753 3.773-6.514 3.368-10.318-.401-3.768-2.364-7.146-5.385-9.266-12.558-8.818-17.237-15.52-17.237-17.673 0-3.61 1.221-7.732 3.63-12.251 4.459-8.365 12.065-14.043 20.528-16.462 2.547 51.544 45.449 120.74 71.715 163.106.867 1.398 1.703 2.748 2.514 4.058h-4.806zm15.041-11.961c-5.663-9.134-12.421-20.036-19.466-31.986l13.163-59.212h12.535l16.449 62.141c-7.02 12.773-13.824 24.389-19.588 34.05-.992-1.603-2.019-3.26-3.093-4.993zm16.4 11.961c26.579-44.604 65.929-115.832 67.781-167.716.275.108 20.328 1.325 28.445 19.73 1.529 3.467 2.304 6.674 2.304 9.534 0 2.152-4.68 8.854-17.236 17.672-3.021 2.121-4.984 5.499-5.386 9.268-.406 3.804.822 7.564 3.368 10.317 3.465 3.747 7.364 9.557 6.266 15.955-3.132 18.231-32.476 49.24-80.597 85.239h-4.945zm162.919-13.505c0 7.447-6.059 13.506-13.506 13.506h-33.699v-41.645c0-4.143-3.358-7.5-7.5-7.5s-7.5 3.357-7.5 7.5v41.645h-71.195c22.547-17.908 65.947-54.4 70.807-82.7 1.565-9.11-1.488-18.653-8.615-27.073 7.031-5.031 21.821-16.488 21.821-28.678 0-4.495-1.001-9.228-2.956-14.086l17.649 5.588c20.752 6.57 34.695 25.609 34.695 47.377v86.066z"/><path d="m503.831 136.767-53.251-53.25c-5.267-5.268-12.271-8.169-19.721-8.169h-104.859c-4.142 0-7.5 3.357-7.5 7.5s3.358 7.5 7.5 7.5h102.555v48.305c0 11.105 9.035 20.141 20.141 20.141h48.304v245.944c0 7.107-5.782 12.89-12.89 12.89h-67.562c-4.142 0-7.5 3.357-7.5 7.5s3.358 7.5 7.5 7.5h67.562c15.378 0 27.89-12.512 27.89-27.89v-248.249c0-7.449-2.901-14.453-8.169-19.722zm-55.136 7.026c-2.834 0-5.141-2.306-5.141-5.141v-40.947l46.089 46.088z"/></g></g></svg>