<svg width="33" height="33" viewBox="0 0 33 33" fill="none" xmlns="http://www.w3.org/2000/svg">
<g clip-path="url(#clip0)">
<path d="M6.45801 16.4645C6.45801 21.982 10.9468 26.4709 16.4645 26.4709C18.2236 26.4709 19.9539 26.008 21.4681 25.1319C21.7225 24.9847 21.8094 24.6591 21.6624 24.4046C21.5152 24.1502 21.1896 24.0632 20.9351 24.2104C19.5826 24.9928 18.0367 25.4064 16.4645 25.4064C11.5339 25.4064 7.52258 21.3951 7.52258 16.4645C7.52258 11.5339 11.5339 7.52256 16.4645 7.52256C21.3951 7.52256 25.4064 11.5339 25.4064 16.4645C25.4064 18.9453 24.414 21.2515 22.612 22.958C22.3986 23.1601 22.3894 23.497 22.5916 23.7105C22.7937 23.9239 23.1306 23.9331 23.3441 23.7309C25.3604 21.8212 26.4709 19.2407 26.4709 16.4645C26.4709 10.9469 21.9821 6.45799 16.4644 6.45799C10.9468 6.45799 6.45801 10.9469 6.45801 16.4645Z" fill="#D6D6D6"/>
<path d="M10.0063 16.4645C10.0063 20.0256 12.9034 22.9226 16.4644 22.9226C20.0255 22.9226 22.9225 20.0256 22.9225 16.4645C22.9225 12.9035 20.0255 10.0065 16.4644 10.0065C12.9034 10.0065 10.0063 12.9036 10.0063 16.4645ZM21.8579 16.4645C21.8579 19.4386 19.4384 21.8581 16.4644 21.8581C13.4903 21.8581 11.0708 19.4386 11.0708 16.4645C11.0708 13.4905 13.4903 11.071 16.4644 11.071C19.4384 11.071 21.8579 13.4905 21.8579 16.4645Z" fill="#D6D6D6"/>
<path d="M5.03882 7.38075C5.03882 8.67207 6.0894 9.72266 7.38079 9.72266C8.67217 9.72266 9.72269 8.67207 9.72269 7.38075C9.72269 6.08943 8.67211 5.03878 7.38079 5.03878C6.08947 5.03878 5.03882 6.08943 5.03882 7.38075ZM8.65818 7.38075C8.65818 8.08509 8.08513 8.65815 7.38079 8.65815C6.67644 8.65815 6.10339 8.08509 6.10339 7.38075C6.10339 6.6764 6.67644 6.10335 7.38079 6.10335C8.08513 6.10335 8.65818 6.6764 8.65818 7.38075Z" fill="#D6D6D6"/>
<path d="M-1.12141e-06 7.34514L-3.21066e-07 25.6549C-1.43749e-07 29.7114 3.28859 33 7.34514 33L25.6548 33C29.7114 33 33 29.7114 33 25.6549L33 7.34521C33 3.28859 29.7114 -1.29873e-06 25.6549 -1.12141e-06L7.34514 -3.21066e-07C3.28859 -1.43749e-07 -1.29873e-06 3.28859 -1.12141e-06 7.34514ZM25.6549 1.06451C29.1235 1.06451 31.9355 3.87647 31.9355 7.34514L31.9355 25.6549C31.9355 29.1235 29.1235 31.9355 25.6549 31.9355L7.34514 31.9355C3.87647 31.9355 1.06451 29.1235 1.06451 25.6549L1.06451 7.34521C1.06451 3.87653 3.87647 1.06457 7.34514 1.06457L25.6549 1.06457L25.6549 1.06451Z" fill="#D6D6D6"/>
</g>
<defs>
<clipPath id="clip0">
<rect width="33" height="33" fill="white" transform="translate(0 33) rotate(-90)"/>
</clipPath>
</defs>
</svg>
