<svg width="33" height="33" viewBox="0 0 33 33" fill="none" xmlns="http://www.w3.org/2000/svg">
<g clip-path="url(#clip0)">
<path d="M25.5481 32.9291L21.6182 32.9291L27.819 28.9549L32.916 25.9766C32.6934 29.8477 29.474 32.9291 25.5481 32.9291Z" fill="#FDE494"/>
<path d="M11.355 30.6579L15.7931 29.5225L25.5485 29.5225C27.7399 29.5225 29.5227 27.7396 29.5227 25.5483L29.5227 23.3696L31.226 21.5417L32.9292 21.8429L32.9292 25.5483C32.9292 25.6921 32.9246 25.8347 32.9165 25.9764L21.6187 32.9289L8.19196 32.9289L11.355 30.6579Z" fill="#FEA150"/>
<path d="M4.52424 28.3074C5.24741 29.0558 6.26029 29.5226 7.38068 29.5226L15.793 29.5226L8.19182 32.929L7.38068 32.929C4.73081 32.929 2.40303 31.5251 1.10101 29.4222L2.83892 28.3871L4.52424 28.3074Z" fill="#FF5D4A"/>
<path d="M3.40667 20.9675L3.40667 25.5484C3.40667 26.6194 3.83328 27.5921 4.52441 28.3075L1.10112 29.4223C0.403539 28.2955 0.000191431 26.9683 0.000191307 25.5484L0.000190954 21.5092L1.76215 20.5193L3.40667 20.9675Z" fill="#E45261"/>
<path d="M-0.000230589 9.59499L1.81361 9.16309L3.40625 10.1166L3.40625 20.9674L-0.000229548 21.509L-0.000230589 9.59499Z" fill="#FF4D95"/>
<path d="M5.96187e-05 7.38081C5.92947e-05 3.67417 2.7468 0.597374 6.31164 0.0778814L10.7772 1.93613L13.04 3.40663L7.38073 3.40663C5.18938 3.40663 3.40654 5.18947 3.40654 7.38081L3.40654 10.1168L5.98123e-05 9.59522L5.96187e-05 7.38081Z" fill="#CB319C"/>
<path d="M12.4943 6.60569e-07L16.7185 1.58445L20.0503 3.40648L13.0399 3.40648L6.3116 0.0777317C6.66075 0.0268137 7.01762 1.13935e-06 7.38069 1.10761e-06L12.4943 6.60569e-07Z" fill="#8A3293"/>
<path d="M16.465 26.116C15.2842 26.116 14.1526 25.9025 13.106 25.5127L18.6384 23.0014L24.5024 21.8015C22.7712 24.4001 19.815 26.116 16.465 26.116Z" fill="#FF5D4A"/>
<path d="M11.7595 19.6389C12.781 21.148 14.5088 22.1418 16.4643 22.1418C19.0545 22.1418 21.2435 20.3977 21.9226 18.0227L23.4456 17.0708L26.0728 17.3627C25.9214 18.9928 25.3644 20.5069 24.5019 21.8015L13.1055 25.5128C10.642 24.5954 8.65255 22.6986 7.60932 20.2989L9.65151 19.2645L11.7595 19.6389Z" fill="#E45261"/>
<path d="M22.142 16.4643C22.142 15.0572 21.6264 13.7691 20.7756 12.7761L23.1975 12.4373L25.6576 13.5236C25.955 14.4512 26.1162 15.4392 26.1162 16.4642C26.1162 16.7673 26.1005 17.0665 26.0731 17.3624L21.9229 18.0224C22.0646 17.5271 22.142 17.0047 22.142 16.4643Z" fill="#FF4D95"/>
<path d="M6.8131 16.4644C6.8131 14.3974 7.46652 12.4803 8.57712 10.9082L10.9823 10.5669L13.4531 11.6549C11.8535 12.6603 10.7873 14.4396 10.7873 16.4644C10.7873 17.6395 11.1462 18.7322 11.7599 19.6389L7.60961 20.2989C7.09831 19.1228 6.8131 17.8265 6.8131 16.4644Z" fill="#FF4D95"/>
<path d="M16.4648 10.7874C15.3589 10.7874 14.3268 11.1063 13.4532 11.6553L8.57718 10.9087C10.3262 8.43307 13.2098 6.81323 16.4648 6.81323C20.7617 6.81323 24.4111 9.63589 25.6577 13.5242L20.7757 12.7766C19.7337 11.5603 18.1882 10.7874 16.4648 10.7874Z" fill="#CB319C"/>
<path d="M7.38091 9.65174C6.12872 9.65174 5.10998 8.633 5.10998 7.3808C5.10998 6.12861 6.12872 5.10986 7.38091 5.10986C8.63311 5.10986 9.65186 6.12861 9.65186 7.3808C9.65186 8.633 8.63311 9.65174 7.38091 9.65174Z" fill="#CB319C"/>
<path d="M29.5227 20.1667L31.1625 19.3488L32.9292 19.0574L32.9292 21.8431L29.5227 23.3697L29.5227 20.1667Z" fill="#FF5D4A"/>
<path d="M32.9292 16.2726L32.9292 19.0575L29.5227 20.1668L29.5227 16.8143L31.2927 16.178L32.9292 16.2726Z" fill="#E45261"/>
<path d="M29.5227 14.1156L31.2731 14.0999L32.9292 14.6373L32.9292 16.2724L29.5227 16.8141L29.5227 14.1156Z" fill="#FF4D95"/>
<path d="M29.5227 11.561L31.327 11.744L32.9292 13.2464L32.9292 14.6373L29.5227 14.1157L29.5227 11.561Z" fill="#CB319C"/>
<path d="M32.9292 13.2464L29.5227 11.561L29.5227 7.67676L31.5207 7.8678L32.9292 9.21248L32.9292 13.2464Z" fill="#8A3293"/>
<path d="M19.7409 1.15296e-06L27.5135 2.9894L32.84 6.23391C32.8985 6.60773 32.9292 6.99071 32.9292 7.38066L32.9292 9.21248L29.5227 7.67682L29.5227 7.38066C29.5227 5.18931 27.7399 3.40648 25.5485 3.40648L20.0504 3.40648L12.4944 1.78647e-06L19.7409 1.15296e-06Z" fill="#523494"/>
<path d="M25.5484 6.37439e-07C29.2281 3.1575e-07 32.2873 2.70684 32.8398 6.23391L19.7408 1.14516e-06L25.5484 6.37439e-07Z" fill="#2D2D87"/>
<path d="M16.4642 6.45825C21.9818 6.45825 26.4707 10.9471 26.4707 16.4647C26.4707 18.2238 26.0077 19.9541 25.1317 21.4684C24.9845 21.7227 24.6589 21.8096 24.4044 21.6626C24.15 21.5154 24.063 21.1899 24.2101 20.9353C24.9925 19.5828 25.4061 18.0369 25.4061 16.4647C25.4061 11.5341 21.3948 7.52282 16.4642 7.52282C11.5336 7.52283 7.52225 11.5341 7.52225 16.4647C7.52225 21.3953 11.5336 25.4066 16.4642 25.4066C18.9451 25.4066 21.2512 24.4142 22.9578 22.6123C23.1599 22.3989 23.4968 22.3896 23.7102 22.5918C23.9236 22.794 23.9329 23.1309 23.7307 23.3443C21.821 25.3607 19.2404 26.4711 16.4642 26.4711C10.9466 26.4711 6.45774 21.9823 6.45774 16.4647C6.45774 10.947 10.9466 6.45825 16.4642 6.45825Z" fill="black"/>
<path d="M16.4643 22.9227C12.9033 22.9227 10.0062 20.0256 10.0062 16.4646C10.0062 12.9036 12.9033 10.0066 16.4643 10.0066C20.0253 10.0066 22.9224 12.9036 22.9224 16.4646C22.9224 20.0256 20.0253 22.9227 16.4643 22.9227ZM16.4643 11.0711C13.4902 11.0711 11.0707 13.4906 11.0707 16.4647C11.0707 19.4387 13.4902 21.8582 16.4643 21.8582C19.4384 21.8582 21.8579 19.4387 21.8579 16.4647C21.8579 13.4906 19.4384 11.0711 16.4643 11.0711Z" fill="black"/>
<path d="M6.42133e-07 7.34515C2.87498e-07 3.28859 3.28859 2.59745e-06 7.34514 2.24282e-06L25.6549 6.42133e-07C29.7114 2.87498e-07 33 3.28859 33 7.34514L33 25.6548C33 29.7114 29.7114 33 25.6549 33L7.34521 33C3.2886 33 2.59745e-06 29.7114 2.24282e-06 25.6549L6.42133e-07 7.34515ZM1.06451 25.6549C1.06451 29.1235 3.87647 31.9355 7.34515 31.9355L25.6549 31.9355C29.1235 31.9355 31.9355 29.1235 31.9355 25.6549L31.9355 7.34514C31.9355 3.87647 29.1235 1.06451 25.6549 1.06451L7.34521 1.06451C3.87653 1.06451 1.06457 3.87647 1.06457 7.34515L1.06457 25.6549L1.06451 25.6549Z" fill="black"/>
<path d="M2.48391 7.55809C2.48391 4.75573 4.75575 2.48389 7.55811 2.48389L25.4419 2.48389C28.2443 2.48389 30.5161 4.75573 30.5161 7.55809L30.5161 25.442C30.5161 28.2443 28.2443 30.5162 25.4419 30.5162L7.55805 30.5162C4.75569 30.5162 2.48384 28.2443 2.48384 25.442L2.48391 7.55809ZM7.96585 21.6206C9.67275 23.8965 10.8107 24.4655 13.0865 25.6034L21.0521 25.6034C22.759 24.4655 24.4659 22.7586 25.0348 20.4827L26.1728 14.2241C25.4419 11.9482 22.19 8.12705 19.9141 7.39649L12.5176 7.55809C10.3031 7.55809 6.82792 12.0096 6.82792 14.2241L7.96585 21.6206Z" fill="black"/>
<path d="M7.38075 5.03882C8.67207 5.03882 9.72266 6.0894 9.72266 7.38072C9.72266 8.67204 8.67207 9.72263 7.38075 9.72263C6.08944 9.72263 5.03885 8.67204 5.03885 7.38072C5.03885 6.08941 6.08944 5.03882 7.38075 5.03882ZM7.38075 8.65819C8.0851 8.65819 8.65815 8.08513 8.65815 7.38079C8.65815 6.67644 8.0851 6.10339 7.38075 6.10339C6.67641 6.10339 6.10336 6.67644 6.10336 7.38079C6.10336 8.08513 6.67641 8.65819 7.38075 8.65819Z" fill="#CB319C"/>
</g>
<defs>
<clipPath id="clip0">
<rect width="33" height="33" fill="white" transform="matrix(-1 8.74228e-08 8.74228e-08 1 33 0)"/>
</clipPath>
</defs>
</svg>
