<svg width="214" height="214" viewBox="0 0 214 214" fill="none" xmlns="http://www.w3.org/2000/svg">
<path d="M212.456 63.9977C212.522 63.4101 212.394 62.8169 212.093 62.308C211.792 61.7991 211.333 61.4021 210.786 61.177L190.163 52.6848C178.217 47.7746 165.029 46.7444 152.465 49.74L153.489 42.7598C153.554 42.3154 153.509 41.8617 153.356 41.4393C153.203 41.0168 152.949 40.6387 152.614 40.3385C152.28 40.0384 151.877 39.8256 151.44 39.7191C151.004 39.6126 150.548 39.6156 150.113 39.7281L132.727 44.2209C126.325 45.8611 120.622 49.523 116.466 54.6624L112.068 60.0782C108.485 64.4747 103.543 67.5558 98.0185 68.837C98.2852 68.0102 98.5836 67.1959 98.9137 66.3938C101.205 60.831 104.965 55.9956 109.792 52.4047L111.39 51.2147C111.776 50.9269 112.079 50.5417 112.268 50.0985C112.457 49.6552 112.525 49.1697 112.465 48.6916C112.405 48.2135 112.22 47.7599 111.927 47.377C111.634 46.9941 111.246 46.6957 110.8 46.5123L110.369 46.3347C107.291 45.0754 103.963 44.5501 100.647 44.8003C104.546 37.2764 106.622 28.9414 106.707 20.4677L106.709 20.1668C106.713 19.7032 106.598 19.2462 106.376 18.8394C106.153 18.4325 105.831 18.0892 105.438 17.8419C105.046 17.5946 104.597 17.4515 104.134 17.4262C103.671 17.4009 103.21 17.4943 102.793 17.6975L90.4491 23.7144C79.9635 28.821 71.4635 37.2554 66.2758 47.7011L62.5127 44.4513C62.1508 44.1387 61.7129 43.9269 61.2432 43.8372C60.7735 43.7476 60.2884 43.7832 59.8368 43.9405C59.3852 44.0978 58.983 44.3712 58.6706 44.7333C58.3583 45.0954 58.1468 45.5334 58.0574 46.0032L58.0095 46.2553C56.4988 54.0311 56.4642 62.0218 57.9075 69.8105C54.9429 68.7202 52.4411 66.6473 50.8187 63.9369L48.2602 59.6365C48.0306 59.2505 47.7091 58.9273 47.3244 58.6957C46.9396 58.464 46.5035 58.3312 46.055 58.3089C45.6064 58.2866 45.1593 58.3756 44.7535 58.568C44.3477 58.7604 43.9957 59.0501 43.729 59.4115L40.7479 63.4496C37.8111 67.4465 35.9111 72.1092 35.2181 77.0203C34.5251 81.9315 35.0606 86.9379 36.7768 91.5913L26.3944 91.4864C25.9111 91.4816 25.4352 91.6054 25.0156 91.8453C24.5959 92.0852 24.2477 92.4324 24.0066 92.8514C23.7655 93.2703 23.6403 93.7459 23.6438 94.2292C23.6473 94.7126 23.7793 95.1863 24.0264 95.6017C27.2915 101.09 31.7248 105.792 37.0115 109.375C20.7318 117.736 7.9739 131.637 1.03704 148.573C0.900866 148.903 0.831159 149.258 0.831902 149.615C0.832645 149.973 0.903824 150.327 1.04137 150.657C1.17893 150.987 1.38016 151.287 1.63357 151.539C1.88699 151.792 2.18763 151.992 2.51833 152.128L12.591 156.275C12.9217 156.411 13.276 156.481 13.6336 156.48C13.9913 156.48 14.3452 156.409 14.6754 156.271C15.0055 156.133 15.3053 155.932 15.5576 155.679C15.81 155.425 16.01 155.125 16.1461 154.794C21.2165 142.543 29.334 131.791 39.7279 123.559C38.0715 132.478 39.0406 141.686 42.5173 150.064C42.6723 150.436 42.9078 150.769 43.207 151.039C43.5062 151.309 43.8615 151.509 44.2474 151.625C44.6333 151.741 45.04 151.77 45.4384 151.71C45.8368 151.649 46.2168 151.501 46.5511 151.277L51.4234 147.999C54.5072 159.56 60.7912 170.017 69.5528 178.166L72.2095 180.637C72.6176 181.016 73.1322 181.261 73.684 181.339C74.2358 181.417 74.7982 181.324 75.2953 181.072C75.7924 180.82 76.2002 180.421 76.4638 179.93C76.7273 179.439 76.8339 178.879 76.7691 178.326L75.214 165.044C74.7604 161.231 75.096 157.365 76.1998 153.687C77.3036 150.01 79.1521 146.598 81.6304 143.665L86.9676 146.452C92.5867 149.389 97.4145 153.638 101.042 158.839C104.669 164.039 106.988 170.037 107.803 176.325C107.884 176.954 108.182 177.534 108.645 177.967C109.108 178.399 109.708 178.657 110.34 178.695C110.973 178.733 111.599 178.549 112.11 178.175C112.622 177.801 112.987 177.261 113.143 176.647L117.228 160.561L120.384 161.284C138.103 165.381 156.719 162.461 172.332 153.135C172.787 152.864 173.153 152.468 173.385 151.993C173.618 151.518 173.708 150.985 173.643 150.461C173.578 149.936 173.362 149.441 173.02 149.037C172.679 148.633 172.228 148.337 171.721 148.186L160.716 144.891C152.299 142.349 144.799 137.425 139.119 130.713L149.606 122.909C150.059 122.572 150.396 122.102 150.571 121.564C150.745 121.027 150.748 120.448 150.579 119.909C150.409 119.37 150.077 118.897 149.627 118.555C149.176 118.214 148.631 118.02 148.066 118.003C136.731 117.65 125.552 115.253 115.068 110.927C113.01 110.08 110.97 109.154 108.97 108.16C127.065 99.4354 147.534 96.9266 167.201 101.022L176.458 102.949C177.004 103.062 177.571 103.006 178.084 102.787C178.596 102.568 179.029 102.197 179.324 101.724C179.619 101.251 179.762 100.699 179.733 100.142C179.704 99.5853 179.505 99.0509 179.163 98.6109L167.445 83.5452C180.307 74.8326 194.888 68.9792 210.205 66.3801C210.788 66.2813 211.323 65.9954 211.729 65.5656C212.135 65.1358 212.39 64.5854 212.456 63.9977ZM12.1889 150.219L7.15733 148.148C14.4348 132.139 27.3659 119.38 43.4707 112.318L56.8646 106.414L46.2055 112.58C31.2275 121.283 19.3365 134.44 12.1889 150.219ZM184.499 68.1786C176.531 71.498 168.965 75.7115 161.948 80.7381C161.65 80.9516 161.398 81.2231 161.207 81.5363C161.016 81.8495 160.891 82.198 160.838 82.5609C160.786 82.9237 160.807 83.2935 160.901 83.6479C160.994 84.0024 161.159 84.3343 161.384 84.6237L170.315 96.1071L168.312 95.69C145.645 90.9691 122.036 94.5391 101.779 105.751C101.352 105.987 100.997 106.333 100.75 106.753C100.503 107.174 100.373 107.653 100.374 108.14C100.375 108.628 100.507 109.106 100.756 109.525C101.005 109.944 101.362 110.289 101.79 110.523L103.011 111.191C106.248 112.964 109.581 114.558 112.994 115.964C121.767 119.583 131.012 121.93 140.449 122.934L133.615 128.02C133.328 128.233 133.086 128.501 132.903 128.808C132.72 129.116 132.599 129.456 132.547 129.81C132.495 130.163 132.513 130.524 132.6 130.871C132.688 131.218 132.843 131.544 133.056 131.831C139.579 140.555 148.725 146.96 159.153 150.109L163.802 151.5C150.634 157.678 135.772 159.254 121.601 155.976L115.852 154.658C115.159 154.499 114.431 154.617 113.824 154.988C113.217 155.359 112.779 155.952 112.604 156.642L110.479 165.008C106.529 154.939 99.0752 146.635 89.489 141.624L82.2868 137.863C81.767 137.592 81.1733 137.495 80.5943 137.588C80.0152 137.682 79.4817 137.959 79.073 138.38C75.59 141.95 72.95 146.255 71.3462 150.978C69.7425 155.702 69.2156 160.724 69.8043 165.677L70.4747 171.404C63.0428 163.488 57.976 153.65 55.8485 143.002C55.7606 142.563 55.5655 142.151 55.2806 141.805C54.9956 141.459 54.6296 141.189 54.2151 141.018C53.8005 140.847 53.3502 140.782 52.9041 140.827C52.4581 140.872 52.0301 141.026 51.6581 141.277L46.384 144.825C43.8644 137.016 43.7234 128.634 45.9789 120.744L46.5593 118.73C47.3418 118.239 48.133 117.76 48.9329 117.295L52.6636 115.137C57.3536 120.051 60.1887 126.443 60.683 133.218L66.115 132.82C65.5606 125.234 62.5297 118.041 57.4884 112.345L62.8467 109.245C77.4453 115.404 91.3571 123.078 104.353 132.142L107.47 127.675C95.2818 119.175 82.3046 111.866 68.7177 105.849L100.579 87.4151L103.419 85.9866C104.029 85.6796 104.644 85.3852 105.257 85.0866L114.921 85.1841C127.495 85.3129 140.01 86.9414 152.198 90.0351L153.539 84.7562C141.729 81.7585 129.62 80.0899 117.44 79.7816C129.65 75.0695 142.407 71.9172 155.407 70.3994L154.774 64.9898C144.573 66.1822 134.509 68.3465 124.72 71.4531L134.488 60.1425L130.366 56.5826L114.339 75.1399C109.809 76.927 105.353 78.9208 100.971 81.1211L100.915 81.1496C100.676 81.1849 100.443 81.2519 100.221 81.3488L66.1007 96.39C75.1455 84.4733 81.8977 70.98 86.0136 56.5969L80.779 55.0918C76.4052 70.3748 68.9226 84.5899 58.8 96.8467L55.2276 101.183L54.2949 101.594C55.9145 94.1113 55.2133 86.3123 52.285 79.2381L47.2574 81.3329C49.9011 87.7153 50.418 94.7797 48.7315 101.479L47.9972 104.37L42.9006 106.617C38.53 104.182 34.6822 100.909 31.577 96.9856L41.0042 97.0808C41.4803 97.0856 41.9494 96.9655 42.3646 96.7325C42.7798 96.4994 43.1267 96.1615 43.3706 95.7526C43.6145 95.3436 43.7469 94.8779 43.7546 94.4018C43.7623 93.9257 43.6451 93.4559 43.4145 93.0392C41.1555 88.9405 40.1166 84.2808 40.4207 79.6106C40.7248 74.9403 42.359 70.4547 45.1304 66.6834L45.6758 65.9448L46.1382 66.7221C47.7213 69.3842 49.9263 71.6227 52.5643 73.2456C55.2023 74.8685 58.1945 75.8274 61.2844 76.0402C61.715 76.0701 62.1465 75.9973 62.5434 75.8277C62.9403 75.6581 63.2912 75.3966 63.5672 75.0647C63.8432 74.7329 64.0363 74.3402 64.1307 73.919C64.2251 73.4978 64.218 73.0603 64.1101 72.6424C62.3614 65.8339 61.8714 58.7633 62.6642 51.7787L65.4704 54.2022C65.7969 54.4842 66.1859 54.6846 66.6051 54.7869C67.0243 54.8891 67.4618 54.8903 67.8816 54.7903C68.3013 54.6903 68.6913 54.4919 69.0194 54.2116C69.3474 53.9313 69.6042 53.5771 69.7685 53.1781C74.1863 42.4382 82.3953 33.6953 92.8358 28.6103L101.037 24.6127C100.316 32.0537 97.8888 39.2281 93.9439 45.5783L92.7845 47.4462C92.4803 47.9364 92.3396 48.5105 92.3827 49.0858C92.4258 49.6611 92.6505 50.2078 93.0244 50.6472C93.3983 51.0866 93.9021 51.3958 94.4631 51.5304C95.024 51.665 95.6133 51.618 96.1458 51.3961C98.5706 50.3927 101.205 50.0026 103.817 50.2605C97.5579 55.8696 93.2988 63.3667 91.6852 71.6148C91.6047 72.0258 91.6201 72.4499 91.7301 72.8539C91.8402 73.258 92.0419 73.6313 92.3197 73.9447C92.5975 74.2581 92.9438 74.5033 93.3318 74.661C93.7197 74.8188 94.1388 74.885 94.5565 74.8545C98.7606 74.5399 102.857 73.372 106.594 71.4218C110.332 69.4716 113.633 66.7802 116.296 63.5117L120.694 58.0966C124.117 53.8625 128.816 50.8456 134.09 49.4942L147.505 46.0275L146.471 53.0791C146.404 53.5353 146.454 54.001 146.616 54.4326C146.778 54.8641 147.047 55.2474 147.398 55.5466C147.749 55.8457 148.17 56.0509 148.622 56.1429C149.074 56.2349 149.541 56.2107 149.981 56.0725C162.487 52.1555 175.968 52.7388 188.089 57.7211L200.544 62.8499C195.071 64.2262 189.708 66.0074 184.499 68.1786Z" fill="url(#paint0_linear)"/>
<path d="M96.076 149.568C96.148 149.568 96.184 149.64 96.184 149.784C96.184 149.928 96.148 150 96.076 150H92.044C91.852 150 91.504 150 91 150C90.52 150.024 89.836 149.424 88.948 148.2C88.06 146.952 87.208 145.812 86.392 144.78L80.884 137.832L79.696 138.984V147.084C79.696 147.804 79.768 148.344 79.912 148.704C80.056 149.04 80.332 149.268 80.74 149.388C81.172 149.508 81.844 149.568 82.756 149.568C82.828 149.568 82.864 149.64 82.864 149.784C82.864 149.928 82.828 150 82.756 150C82.036 150 81.46 149.988 81.028 149.964L78.508 149.928L76.06 149.964C75.628 149.988 75.028 150 74.26 150C74.212 150 74.188 149.928 74.188 149.784C74.188 149.64 74.212 149.568 74.26 149.568C75.172 149.568 75.832 149.508 76.24 149.388C76.672 149.268 76.96 149.04 77.104 148.704C77.272 148.344 77.356 147.804 77.356 147.084V130.416C77.356 129.696 77.284 129.168 77.14 128.832C76.996 128.496 76.708 128.268 76.276 128.148C75.868 128.004 75.208 127.932 74.296 127.932C74.248 127.932 74.224 127.86 74.224 127.716C74.224 127.572 74.248 127.5 74.296 127.5L76.096 127.536C77.104 127.584 77.908 127.608 78.508 127.608C79.204 127.608 80.056 127.584 81.064 127.536L82.756 127.5C82.828 127.5 82.864 127.572 82.864 127.716C82.864 127.86 82.828 127.932 82.756 127.932C81.868 127.932 81.208 128.004 80.776 128.148C80.368 128.292 80.08 128.544 79.912 128.904C79.768 129.24 79.696 129.768 79.696 130.488V138.084L87.4 130.416C88.192 129.624 88.588 129.036 88.588 128.652C88.588 128.172 87.88 127.932 86.464 127.932C86.416 127.932 86.392 127.86 86.392 127.716C86.392 127.572 86.416 127.5 86.464 127.5L88.012 127.536C88.972 127.584 89.848 127.608 90.64 127.608C91.432 127.608 92.26 127.584 93.124 127.536L94.456 127.5C94.528 127.5 94.564 127.572 94.564 127.716C94.564 127.86 94.528 127.932 94.456 127.932C93.472 127.932 92.428 128.148 91.324 128.58C90.22 129.012 89.188 129.696 88.228 130.632L82.54 136.212L87.724 142.836C89.476 145.116 90.808 146.724 91.72 147.66C92.656 148.596 93.376 149.148 93.88 149.316C94.384 149.484 95.116 149.568 96.076 149.568ZM100.914 146.94C100.914 147.636 100.986 148.14 101.13 148.452C101.274 148.764 101.538 148.98 101.922 149.1C102.306 149.196 102.93 149.244 103.794 149.244H107.718C109.086 149.244 110.178 148.824 110.994 147.984C111.81 147.144 112.35 145.98 112.614 144.492C112.614 144.42 112.674 144.396 112.794 144.42C112.938 144.42 113.01 144.456 113.01 144.528C112.794 146.52 112.686 148.164 112.686 149.46C112.686 149.652 112.65 149.796 112.578 149.892C112.506 149.964 112.362 150 112.146 150H95.5141C95.4661 150 95.4421 149.928 95.4421 149.784C95.4421 149.64 95.4661 149.568 95.5141 149.568C96.4261 149.568 97.0861 149.508 97.4941 149.388C97.9261 149.268 98.2141 149.04 98.3581 148.704C98.5021 148.344 98.5741 147.804 98.5741 147.084V130.416C98.5741 129.696 98.5021 129.168 98.3581 128.832C98.2141 128.496 97.9261 128.268 97.4941 128.148C97.0861 128.004 96.4261 127.932 95.5141 127.932C95.4661 127.932 95.4421 127.86 95.4421 127.716C95.4421 127.572 95.4661 127.5 95.5141 127.5L97.2781 127.536C98.2861 127.584 99.1021 127.608 99.7261 127.608C100.398 127.608 101.238 127.584 102.246 127.536L103.974 127.5C104.046 127.5 104.082 127.572 104.082 127.716C104.082 127.86 104.046 127.932 103.974 127.932C103.086 127.932 102.426 128.004 101.994 128.148C101.586 128.268 101.298 128.508 101.13 128.868C100.986 129.204 100.914 129.732 100.914 130.452V146.94ZM128.389 144.636C128.389 144.588 128.437 144.564 128.533 144.564C128.605 144.564 128.665 144.576 128.713 144.6C128.785 144.624 128.821 144.66 128.821 144.708C128.605 146.22 128.497 147.804 128.497 149.46C128.497 149.652 128.449 149.796 128.353 149.892C128.281 149.964 128.137 150 127.921 150H112.837C112.789 150 112.765 149.928 112.765 149.784C112.765 149.64 112.789 149.568 112.837 149.568C113.749 149.568 114.409 149.508 114.817 149.388C115.249 149.268 115.537 149.04 115.681 148.704C115.849 148.344 115.933 147.804 115.933 147.084V130.416C115.933 129.696 115.849 129.168 115.681 128.832C115.537 128.496 115.249 128.268 114.817 128.148C114.409 128.004 113.749 127.932 112.837 127.932C112.789 127.932 112.765 127.86 112.765 127.716C112.765 127.572 112.789 127.5 112.837 127.5H127.309C127.525 127.5 127.633 127.608 127.633 127.824L127.705 132.252C127.705 132.324 127.645 132.372 127.525 132.396C127.405 132.396 127.333 132.36 127.309 132.288C127.237 131.016 126.853 130.032 126.157 129.336C125.461 128.616 124.537 128.256 123.385 128.256H121.189C120.349 128.256 119.725 128.328 119.317 128.472C118.933 128.592 118.657 128.82 118.489 129.156C118.345 129.468 118.273 129.948 118.273 130.596V137.904H122.665C123.817 137.904 124.633 137.712 125.113 137.328C125.617 136.944 125.869 136.296 125.869 135.384C125.869 135.336 125.941 135.312 126.085 135.312C126.229 135.312 126.301 135.336 126.301 135.384L126.265 138.3C126.265 138.996 126.277 139.524 126.301 139.884L126.337 141.612C126.337 141.66 126.265 141.684 126.121 141.684C125.977 141.684 125.905 141.66 125.905 141.612C125.905 140.556 125.641 139.8 125.113 139.344C124.609 138.888 123.757 138.66 122.557 138.66H118.273V146.94C118.273 147.612 118.345 148.104 118.489 148.416C118.633 148.728 118.897 148.944 119.281 149.064C119.665 149.184 120.265 149.244 121.081 149.244H123.961C125.113 149.244 126.073 148.836 126.841 148.02C127.609 147.204 128.125 146.076 128.389 144.636ZM153.809 127.5C153.881 127.5 153.917 127.572 153.917 127.716C153.917 127.86 153.881 127.932 153.809 127.932C152.801 127.932 152.069 128.208 151.613 128.76C151.157 129.312 150.929 130.212 150.929 131.46V150.432C150.929 150.48 150.869 150.516 150.749 150.54C150.629 150.564 150.545 150.552 150.497 150.504L133.937 130.452L133.613 130.092V146.076C133.613 147.324 133.829 148.224 134.261 148.776C134.717 149.304 135.437 149.568 136.421 149.568C136.493 149.568 136.529 149.64 136.529 149.784C136.529 149.928 136.493 150 136.421 150C135.821 150 135.365 149.988 135.053 149.964L133.253 149.928L131.417 149.964C131.081 149.988 130.589 150 129.941 150C129.893 150 129.869 149.928 129.869 149.784C129.869 149.64 129.893 149.568 129.941 149.568C130.973 149.568 131.705 149.304 132.137 148.776C132.569 148.224 132.785 147.324 132.785 146.076V129.228C131.849 128.364 130.901 127.932 129.941 127.932C129.869 127.932 129.833 127.86 129.833 127.716C129.833 127.572 129.869 127.5 129.941 127.5L131.273 127.536C131.561 127.56 131.957 127.572 132.461 127.572C132.989 127.572 133.421 127.56 133.757 127.536C134.093 127.512 134.357 127.5 134.549 127.5C134.741 127.5 134.873 127.548 134.945 127.644C135.041 127.716 135.185 127.896 135.377 128.184C135.665 128.616 135.953 129.012 136.241 129.372L150.101 146.4V131.46C150.101 130.212 149.885 129.312 149.453 128.76C149.045 128.208 148.349 127.932 147.365 127.932C147.317 127.932 147.293 127.86 147.293 127.716C147.293 127.572 147.317 127.5 147.365 127.5L148.769 127.536C149.489 127.584 150.077 127.608 150.533 127.608C150.965 127.608 151.565 127.584 152.333 127.536L153.809 127.5Z" fill="white"/>
<defs>
<linearGradient id="paint0_linear" x1="43.5" y1="-24.5" x2="102.819" y2="213.817" gradientUnits="userSpaceOnUse">
<stop stop-color="#FF611E"/>
<stop offset="1" stop-opacity="0"/>
</linearGradient>
</defs>
</svg>
