<svg width="151" height="63" viewBox="0 0 151 63" fill="none" xmlns="http://www.w3.org/2000/svg">
<path d="M41.024 60.232C41.152 60.232 41.216 60.36 41.216 60.616C41.216 60.872 41.152 61 41.024 61H33.856C33.5147 61 32.896 61 32 61C31.1467 61.0427 29.9307 59.976 28.352 57.8C26.7733 55.5813 25.2587 53.5547 23.808 51.72L14.016 39.368L11.904 41.416V55.816C11.904 57.096 12.032 58.056 12.288 58.696C12.544 59.2933 13.0347 59.6987 13.76 59.912C14.528 60.1253 15.7227 60.232 17.344 60.232C17.472 60.232 17.536 60.36 17.536 60.616C17.536 60.872 17.472 61 17.344 61C16.064 61 15.04 60.9787 14.272 60.936L9.792 60.872L5.44 60.936C4.672 60.9787 3.60533 61 2.24 61C2.15467 61 2.112 60.872 2.112 60.616C2.112 60.36 2.15467 60.232 2.24 60.232C3.86133 60.232 5.03467 60.1253 5.76 59.912C6.528 59.6987 7.04 59.2933 7.296 58.696C7.59467 58.056 7.744 57.096 7.744 55.816V26.184C7.744 24.904 7.616 23.9653 7.36 23.368C7.104 22.7707 6.592 22.3653 5.824 22.152C5.09867 21.896 3.92533 21.768 2.304 21.768C2.21867 21.768 2.176 21.64 2.176 21.384C2.176 21.128 2.21867 21 2.304 21L5.504 21.064C7.296 21.1493 8.72533 21.192 9.792 21.192C11.0293 21.192 12.544 21.1493 14.336 21.064L17.344 21C17.472 21 17.536 21.128 17.536 21.384C17.536 21.64 17.472 21.768 17.344 21.768C15.7653 21.768 14.592 21.896 13.824 22.152C13.0987 22.408 12.5867 22.856 12.288 23.496C12.032 24.0933 11.904 25.032 11.904 26.312V39.816L25.6 26.184C27.008 24.776 27.712 23.7307 27.712 23.048C27.712 22.1947 26.4533 21.768 23.936 21.768C23.8507 21.768 23.808 21.64 23.808 21.384C23.808 21.128 23.8507 21 23.936 21L26.688 21.064C28.3947 21.1493 29.952 21.192 31.36 21.192C32.768 21.192 34.24 21.1493 35.776 21.064L38.144 21C38.272 21 38.336 21.128 38.336 21.384C38.336 21.64 38.272 21.768 38.144 21.768C36.3947 21.768 34.5387 22.152 32.576 22.92C30.6133 23.688 28.7787 24.904 27.072 26.568L16.96 36.488L26.176 48.264C29.2907 52.3173 31.6587 55.176 33.28 56.84C34.944 58.504 36.224 59.4853 37.12 59.784C38.016 60.0827 39.3173 60.232 41.024 60.232ZM49.625 55.56C49.625 56.7973 49.753 57.6933 50.009 58.248C50.265 58.8027 50.7343 59.1867 51.417 59.4C52.0997 59.5707 53.209 59.656 54.745 59.656H61.721C64.153 59.656 66.0943 58.9093 67.545 57.416C68.9957 55.9227 69.9557 53.8533 70.425 51.208C70.425 51.08 70.5317 51.0373 70.745 51.08C71.001 51.08 71.129 51.144 71.129 51.272C70.745 54.8133 70.553 57.736 70.553 60.04C70.553 60.3813 70.489 60.6373 70.361 60.808C70.233 60.936 69.977 61 69.593 61H40.025C39.9397 61 39.897 60.872 39.897 60.616C39.897 60.36 39.9397 60.232 40.025 60.232C41.6463 60.232 42.8197 60.1253 43.545 59.912C44.313 59.6987 44.825 59.2933 45.081 58.696C45.337 58.056 45.465 57.096 45.465 55.816V26.184C45.465 24.904 45.337 23.9653 45.081 23.368C44.825 22.7707 44.313 22.3653 43.545 22.152C42.8197 21.896 41.6463 21.768 40.025 21.768C39.9397 21.768 39.897 21.64 39.897 21.384C39.897 21.128 39.9397 21 40.025 21L43.161 21.064C44.953 21.1493 46.4037 21.192 47.513 21.192C48.7077 21.192 50.201 21.1493 51.993 21.064L55.065 21C55.193 21 55.257 21.128 55.257 21.384C55.257 21.64 55.193 21.768 55.065 21.768C53.4863 21.768 52.313 21.896 51.545 22.152C50.8197 22.3653 50.3077 22.792 50.009 23.432C49.753 24.0293 49.625 24.968 49.625 26.248V55.56ZM98.47 51.464C98.47 51.3787 98.5553 51.336 98.726 51.336C98.854 51.336 98.9607 51.3573 99.046 51.4C99.174 51.4427 99.238 51.5067 99.238 51.592C98.854 54.28 98.662 57.096 98.662 60.04C98.662 60.3813 98.5767 60.6373 98.406 60.808C98.278 60.936 98.022 61 97.638 61H70.822C70.7367 61 70.694 60.872 70.694 60.616C70.694 60.36 70.7367 60.232 70.822 60.232C72.4433 60.232 73.6167 60.1253 74.342 59.912C75.11 59.6987 75.622 59.2933 75.878 58.696C76.1767 58.056 76.326 57.096 76.326 55.816V26.184C76.326 24.904 76.1767 23.9653 75.878 23.368C75.622 22.7707 75.11 22.3653 74.342 22.152C73.6167 21.896 72.4433 21.768 70.822 21.768C70.7367 21.768 70.694 21.64 70.694 21.384C70.694 21.128 70.7367 21 70.822 21H96.55C96.934 21 97.126 21.192 97.126 21.576L97.254 29.448C97.254 29.576 97.1473 29.6613 96.934 29.704C96.7207 29.704 96.5927 29.64 96.55 29.512C96.422 27.2507 95.7393 25.5013 94.502 24.264C93.2647 22.984 91.622 22.344 89.574 22.344H85.67C84.1767 22.344 83.0673 22.472 82.342 22.728C81.6593 22.9413 81.1687 23.3467 80.87 23.944C80.614 24.4987 80.486 25.352 80.486 26.504V39.496H88.294C90.342 39.496 91.7927 39.1547 92.646 38.472C93.542 37.7893 93.99 36.6373 93.99 35.016C93.99 34.9307 94.118 34.888 94.374 34.888C94.63 34.888 94.758 34.9307 94.758 35.016L94.694 40.2C94.694 41.4373 94.7153 42.376 94.758 43.016L94.822 46.088C94.822 46.1733 94.694 46.216 94.438 46.216C94.182 46.216 94.054 46.1733 94.054 46.088C94.054 44.2107 93.5847 42.8667 92.646 42.056C91.75 41.2453 90.2353 40.84 88.102 40.84H80.486V55.56C80.486 56.7547 80.614 57.6293 80.87 58.184C81.126 58.7387 81.5953 59.1227 82.278 59.336C82.9607 59.5493 84.0273 59.656 85.478 59.656H90.598C92.646 59.656 94.3527 58.9307 95.718 57.48C97.0833 56.0293 98.0007 54.024 98.47 51.464ZM143.661 21C143.789 21 143.853 21.128 143.853 21.384C143.853 21.64 143.789 21.768 143.661 21.768C141.869 21.768 140.568 22.2587 139.757 23.24C138.946 24.2213 138.541 25.8213 138.541 28.04V61.768C138.541 61.8533 138.434 61.9173 138.221 61.96C138.008 62.0027 137.858 61.9813 137.773 61.896L108.333 26.248L107.757 25.608V54.024C107.757 56.2427 108.141 57.8427 108.909 58.824C109.72 59.7627 111 60.232 112.749 60.232C112.877 60.232 112.941 60.36 112.941 60.616C112.941 60.872 112.877 61 112.749 61C111.682 61 110.872 60.9787 110.317 60.936L107.117 60.872L103.853 60.936C103.256 60.9787 102.381 61 101.229 61C101.144 61 101.101 60.872 101.101 60.616C101.101 60.36 101.144 60.232 101.229 60.232C103.064 60.232 104.365 59.7627 105.133 58.824C105.901 57.8427 106.285 56.2427 106.285 54.024V24.072C104.621 22.536 102.936 21.768 101.229 21.768C101.101 21.768 101.037 21.64 101.037 21.384C101.037 21.128 101.101 21 101.229 21L103.597 21.064C104.109 21.1067 104.813 21.128 105.709 21.128C106.648 21.128 107.416 21.1067 108.013 21.064C108.61 21.0213 109.08 21 109.421 21C109.762 21 109.997 21.0853 110.125 21.256C110.296 21.384 110.552 21.704 110.893 22.216C111.405 22.984 111.917 23.688 112.429 24.328L137.069 54.6V28.04C137.069 25.8213 136.685 24.2213 135.917 23.24C135.192 22.2587 133.954 21.768 132.205 21.768C132.12 21.768 132.077 21.64 132.077 21.384C132.077 21.128 132.12 21 132.205 21L134.701 21.064C135.981 21.1493 137.026 21.192 137.837 21.192C138.605 21.192 139.672 21.1493 141.037 21.064L143.661 21Z" fill="white"/>
<path d="M22.584 14.712C22.632 14.712 22.656 14.76 22.656 14.856C22.656 14.952 22.632 15 22.584 15C22.072 15 21.664 14.992 21.36 14.976L19.704 14.952L18.096 14.976C17.84 14.992 17.48 15 17.016 15C16.984 15 16.968 14.952 16.968 14.856C16.968 14.76 16.984 14.712 17.016 14.712C17.56 14.712 17.96 14.672 18.216 14.592C18.472 14.496 18.64 14.336 18.72 14.112C18.816 13.888 18.848 13.536 18.816 13.056L18.36 2.376L12.984 14.832C12.952 14.896 12.888 14.928 12.792 14.928C12.712 14.928 12.64 14.896 12.576 14.832L6.648 2.424L6.456 12.312C6.44 13.16 6.584 13.776 6.888 14.16C7.208 14.528 7.736 14.712 8.472 14.712C8.504 14.712 8.52 14.76 8.52 14.856C8.52 14.952 8.504 15 8.472 15C8.024 15 7.68 14.992 7.44 14.976L6.144 14.952L4.848 14.976C4.624 14.992 4.304 15 3.888 15C3.84 15 3.816 14.952 3.816 14.856C3.816 14.76 3.84 14.712 3.888 14.712C4.544 14.712 5.032 14.52 5.352 14.136C5.672 13.752 5.84 13.144 5.856 12.312L6.072 1.392C5.592 0.655999 4.92 0.287999 4.056 0.287999C4.008 0.287999 3.984 0.239999 3.984 0.144C3.984 0.0479999 4.008 0 4.056 0L4.992 0.0239997C5.168 0.0399995 5.4 0.0479994 5.688 0.0479994C6.008 0.0479994 6.272 0.0399995 6.48 0.0239997C6.704 0.0079999 6.88 0 7.008 0C7.216 0 7.384 0.0719995 7.512 0.215999C7.64 0.359999 7.84 0.703999 8.112 1.248L13.464 12.288L18.552 0.599999C18.728 0.2 18.968 0 19.272 0C19.352 0 19.472 0.0079999 19.632 0.0239997C19.792 0.0399995 20 0.0479994 20.256 0.0479994L21.456 0.0239997C21.632 0.0079999 21.904 0 22.272 0C22.304 0 22.32 0.0479999 22.32 0.144C22.32 0.239999 22.304 0.287999 22.272 0.287999C21.472 0.287999 20.896 0.415999 20.544 0.672C20.208 0.912 20.048 1.352 20.064 1.992L20.568 13.056C20.6 13.552 20.664 13.912 20.76 14.136C20.856 14.36 21.032 14.512 21.288 14.592C21.56 14.672 21.992 14.712 22.584 14.712ZM31.9168 13.704C31.9808 13.704 32.0208 13.744 32.0368 13.824C32.0528 13.888 32.0288 13.936 31.9648 13.968L29.4928 15.144C29.4288 15.176 29.3568 15.192 29.2768 15.192C29.0688 15.192 28.8768 15.056 28.7008 14.784C28.5408 14.496 28.4288 14.112 28.3648 13.632L27.1648 14.424C26.7808 14.696 26.4288 14.888 26.1088 15C25.8048 15.112 25.4768 15.168 25.1248 15.168C24.5168 15.168 24.0448 15.016 23.7088 14.712C23.3728 14.392 23.2048 13.992 23.2048 13.512C23.2048 13 23.4048 12.576 23.8048 12.24C24.2208 11.888 24.8768 11.544 25.7728 11.208L28.3408 10.272V8.688C28.3408 7.728 28.2128 7.032 27.9568 6.6C27.7168 6.168 27.3568 5.952 26.8768 5.952C26.3488 5.952 25.9488 6.136 25.6768 6.504C25.4048 6.872 25.2288 7.288 25.1488 7.752C25.0528 8.456 24.7248 8.808 24.1648 8.808C23.8768 8.808 23.6608 8.736 23.5168 8.592C23.3728 8.448 23.3008 8.272 23.3008 8.064C23.3008 7.664 23.5488 7.264 24.0448 6.864C24.5568 6.464 25.1648 6.136 25.8688 5.88C26.5888 5.624 27.2208 5.496 27.7648 5.496C28.4208 5.496 28.9248 5.712 29.2768 6.144C29.6448 6.56 29.8288 7.168 29.8288 7.968V12.408C29.8288 12.952 29.9008 13.352 30.0448 13.608C30.2048 13.864 30.4448 13.992 30.7648 13.992C31.0528 13.992 31.4208 13.896 31.8688 13.704H31.9168ZM28.3408 13.272V13.128V10.608L26.3248 11.424C25.8928 11.584 25.5648 11.784 25.3408 12.024C25.1168 12.248 25.0048 12.536 25.0048 12.888C25.0048 13.272 25.1248 13.592 25.3648 13.848C25.6208 14.088 25.9408 14.208 26.3248 14.208C26.6448 14.208 27.0048 14.088 27.4048 13.848L28.3408 13.272ZM36.3549 15.288C35.3149 15.288 34.4429 15.064 33.7389 14.616C33.0349 14.152 32.5069 13.56 32.1549 12.84C31.8189 12.12 31.6509 11.36 31.6509 10.56C31.6509 9.536 31.9149 8.648 32.4429 7.896C32.9709 7.128 33.6429 6.544 34.4589 6.144C35.2749 5.728 36.1149 5.52 36.9789 5.52C37.6989 5.52 38.3469 5.664 38.9229 5.952C39.5149 6.24 39.8109 6.6 39.8109 7.032C39.8109 7.272 39.7229 7.472 39.5469 7.632C39.3869 7.792 39.1709 7.872 38.8989 7.872C38.3869 7.872 38.0029 7.584 37.7469 7.008C37.5709 6.656 37.3629 6.4 37.1229 6.24C36.8989 6.08 36.5709 6 36.1389 6C35.2749 6 34.6029 6.352 34.1229 7.056C33.6429 7.744 33.4029 8.664 33.4029 9.816C33.4029 11.16 33.7309 12.264 34.3869 13.128C35.0429 13.976 36.0429 14.4 37.3869 14.4C38.2989 14.4 39.0989 14.144 39.7869 13.632H39.8349C39.8829 13.632 39.9229 13.656 39.9549 13.704C40.0029 13.752 40.0029 13.792 39.9549 13.824C39.3949 14.336 38.8269 14.712 38.2509 14.952C37.6909 15.176 37.0589 15.288 36.3549 15.288ZM42.405 15C42.357 15 42.333 14.952 42.333 14.856C42.333 14.76 42.357 14.712 42.405 14.712C42.853 14.712 43.173 14.672 43.365 14.592C43.573 14.512 43.717 14.36 43.797 14.136C43.877 13.896 43.917 13.536 43.917 13.056V7.728C43.917 7.072 43.845 6.64 43.701 6.432C43.573 6.224 43.285 6.12 42.837 6.12C42.165 6.12 41.653 6.344 41.301 6.792C40.949 7.24 40.741 7.928 40.677 8.856C40.677 8.888 40.629 8.904 40.533 8.904C40.453 8.904 40.413 8.888 40.413 8.856L40.365 7.416C40.349 7.24 40.333 7.032 40.317 6.792C40.301 6.536 40.293 6.248 40.293 5.928C40.293 5.832 40.301 5.776 40.317 5.76C40.333 5.728 40.389 5.712 40.485 5.712C40.821 5.712 41.117 5.72 41.373 5.736L44.613 5.76L47.901 5.736C48.173 5.72 48.485 5.712 48.837 5.712C48.933 5.712 48.989 5.728 49.005 5.76C49.021 5.776 49.029 5.832 49.029 5.928C49.029 6.2 49.013 6.656 48.981 7.296L48.933 8.856C48.933 8.888 48.885 8.904 48.789 8.904C48.693 8.904 48.645 8.888 48.645 8.856C48.565 7.912 48.349 7.224 47.997 6.792C47.661 6.344 47.157 6.12 46.485 6.12C46.053 6.12 45.765 6.232 45.621 6.456C45.493 6.664 45.429 7.088 45.429 7.728V13.056C45.429 13.536 45.461 13.896 45.525 14.136C45.605 14.36 45.741 14.512 45.933 14.592C46.141 14.672 46.461 14.712 46.893 14.712C46.941 14.712 46.965 14.76 46.965 14.856C46.965 14.952 46.941 15 46.893 15C46.477 15 46.149 14.992 45.909 14.976L44.685 14.952L43.413 14.976C43.173 14.992 42.837 15 42.405 15ZM57.3266 13.608C57.3746 13.608 57.4146 13.64 57.4466 13.704C57.4946 13.752 57.5026 13.8 57.4706 13.848C56.3986 14.808 55.2146 15.288 53.9186 15.288C52.9746 15.288 52.1666 15.08 51.4946 14.664C50.8226 14.232 50.3106 13.664 49.9586 12.96C49.6066 12.24 49.4306 11.472 49.4306 10.656C49.4306 9.712 49.6546 8.848 50.1026 8.064C50.5666 7.28 51.1906 6.664 51.9746 6.216C52.7586 5.752 53.6226 5.52 54.5666 5.52C55.4946 5.52 56.1986 5.76 56.6786 6.24C57.1746 6.704 57.4226 7.376 57.4226 8.256C57.4226 8.688 57.3266 8.904 57.1346 8.904L51.2066 8.928C51.1746 9.28 51.1586 9.552 51.1586 9.744C51.1586 11.136 51.4866 12.256 52.1426 13.104C52.7986 13.952 53.7266 14.376 54.9266 14.376C55.4066 14.376 55.8066 14.32 56.1266 14.208C56.4626 14.08 56.8546 13.88 57.3026 13.608H57.3266ZM53.7506 6C53.0786 6 52.5266 6.232 52.0946 6.696C51.6626 7.144 51.3826 7.776 51.2546 8.592L55.6226 8.496C55.6226 7.68 55.4546 7.064 55.1186 6.648C54.7986 6.216 54.3426 6 53.7506 6ZM64.7469 5.424C65.4189 5.424 66.0349 5.6 66.5949 5.952C67.1549 6.304 67.6029 6.816 67.9389 7.488C68.2749 8.144 68.4429 8.928 68.4429 9.84C68.4429 11.056 68.1709 12.08 67.6269 12.912C67.0989 13.728 66.4349 14.336 65.6349 14.736C64.8349 15.12 64.0429 15.312 63.2589 15.312C62.7789 15.312 62.3469 15.272 61.9629 15.192C61.5789 15.112 61.1949 14.968 60.8109 14.76V19.656C60.8109 20.136 60.8669 20.488 60.9789 20.712C61.1069 20.936 61.3309 21.088 61.6509 21.168C61.9709 21.264 62.4749 21.312 63.1629 21.312C63.2109 21.312 63.2349 21.36 63.2349 21.456C63.2349 21.552 63.2109 21.6 63.1629 21.6C62.6029 21.6 62.1629 21.592 61.8429 21.576L60.0669 21.552L58.6269 21.576C58.3869 21.592 58.0509 21.6 57.6189 21.6C57.5869 21.6 57.5709 21.552 57.5709 21.456C57.5709 21.36 57.5869 21.312 57.6189 21.312C58.0989 21.312 58.4509 21.264 58.6749 21.168C58.9149 21.088 59.0749 20.936 59.1549 20.712C59.2509 20.488 59.2989 20.136 59.2989 19.656V7.68C59.2989 7.008 59.1629 6.568 58.8909 6.36C58.6349 6.136 58.1229 6.024 57.3549 6.024C57.3229 6.024 57.3069 5.976 57.3069 5.88C57.3069 5.784 57.3229 5.736 57.3549 5.736H60.3309C60.5229 5.736 60.6509 5.784 60.7149 5.88C60.7789 5.96 60.8109 6.12 60.8109 6.36V7.392C61.4829 6.72 62.1389 6.224 62.7789 5.904C63.4189 5.584 64.0749 5.424 64.7469 5.424ZM63.9309 14.784C64.7789 14.784 65.4589 14.416 65.9709 13.68C66.4989 12.944 66.7629 11.912 66.7629 10.584C66.7629 9.272 66.4669 8.248 65.8749 7.512C65.2829 6.776 64.5389 6.408 63.6429 6.408C63.0989 6.408 62.6029 6.536 62.1549 6.792C61.7069 7.032 61.2589 7.384 60.8109 7.848V13.32C61.2269 13.8 61.6749 14.168 62.1549 14.424C62.6349 14.664 63.2269 14.784 63.9309 14.784ZM73.6721 15.288C72.6321 15.288 71.7601 15.064 71.0561 14.616C70.3521 14.152 69.8241 13.56 69.4721 12.84C69.1361 12.12 68.9681 11.36 68.9681 10.56C68.9681 9.536 69.2321 8.648 69.7601 7.896C70.2881 7.128 70.9601 6.544 71.7761 6.144C72.5921 5.728 73.4321 5.52 74.2961 5.52C75.0161 5.52 75.6641 5.664 76.2401 5.952C76.8321 6.24 77.1281 6.6 77.1281 7.032C77.1281 7.272 77.0401 7.472 76.8641 7.632C76.7041 7.792 76.4881 7.872 76.2161 7.872C75.7041 7.872 75.3201 7.584 75.0641 7.008C74.8881 6.656 74.6801 6.4 74.4401 6.24C74.2161 6.08 73.8881 6 73.4561 6C72.5921 6 71.9201 6.352 71.4401 7.056C70.9601 7.744 70.7201 8.664 70.7201 9.816C70.7201 11.16 71.0481 12.264 71.7041 13.128C72.3601 13.976 73.3601 14.4 74.7041 14.4C75.6161 14.4 76.4161 14.144 77.1041 13.632H77.1521C77.2001 13.632 77.2401 13.656 77.2721 13.704C77.3201 13.752 77.3201 13.792 77.2721 13.824C76.7121 14.336 76.1441 14.712 75.5681 14.952C75.0081 15.176 74.3761 15.288 73.6721 15.288ZM87.9542 14.712C87.9862 14.712 88.0022 14.76 88.0022 14.856C88.0022 14.952 87.9862 15 87.9542 15H85.2662C85.1542 15 85.0662 14.968 85.0022 14.904C84.9382 14.84 84.7942 14.624 84.5702 14.256C84.3462 13.872 84.0422 13.352 83.6582 12.696C83.2582 12.04 82.9222 11.552 82.6502 11.232C82.3942 10.912 82.1302 10.696 81.8582 10.584C81.6022 10.456 81.2662 10.392 80.8502 10.392H80.5142V13.056C80.5142 13.536 80.5462 13.896 80.6102 14.136C80.6902 14.36 80.8342 14.512 81.0422 14.592C81.2502 14.672 81.5702 14.712 82.0022 14.712C82.0342 14.712 82.0502 14.76 82.0502 14.856C82.0502 14.952 82.0342 15 82.0022 15C81.5862 15 81.2582 14.992 81.0182 14.976L79.7942 14.952L78.4982 14.976C78.2582 14.992 77.9302 15 77.5142 15C77.4662 15 77.4422 14.952 77.4422 14.856C77.4422 14.76 77.4662 14.712 77.5142 14.712C77.9462 14.712 78.2662 14.672 78.4742 14.592C78.6822 14.512 78.8182 14.36 78.8822 14.136C78.9622 13.896 79.0022 13.536 79.0022 13.056V7.68C79.0022 7.2 78.9622 6.848 78.8822 6.624C78.8182 6.384 78.6822 6.224 78.4742 6.144C78.2822 6.064 77.9702 6.024 77.5382 6.024C77.4902 6.024 77.4662 5.976 77.4662 5.88C77.4662 5.784 77.4902 5.736 77.5382 5.736C77.9382 5.736 78.2502 5.744 78.4742 5.76L79.7942 5.784L81.2102 5.76C81.4662 5.744 81.8182 5.736 82.2662 5.736C82.3142 5.736 82.3382 5.784 82.3382 5.88C82.3382 5.976 82.3142 6.024 82.2662 6.024C81.7542 6.024 81.3782 6.072 81.1382 6.168C80.8982 6.248 80.7302 6.408 80.6342 6.648C80.5542 6.888 80.5142 7.248 80.5142 7.728V10.008C80.7062 10.008 80.9462 9.992 81.2342 9.96L81.9542 9.936C82.3542 9.936 82.7462 9.544 83.1302 8.76C83.5782 7.88 83.9222 7.232 84.1622 6.816C84.4182 6.4 84.6902 6.08 84.9782 5.856C85.2662 5.632 85.6022 5.52 85.9862 5.52C86.3702 5.52 86.6582 5.608 86.8502 5.784C87.0422 5.944 87.1382 6.16 87.1382 6.432C87.1382 6.688 87.0502 6.912 86.8742 7.104C86.6982 7.28 86.4502 7.368 86.1302 7.368C85.9382 7.368 85.7302 7.304 85.5062 7.176C85.3142 7.08 85.1622 7.032 85.0502 7.032C84.8582 7.032 84.6182 7.216 84.3302 7.584C84.0582 7.936 83.7862 8.376 83.5142 8.904C83.2582 9.384 83.0102 9.744 82.7702 9.984C83.2662 10.048 83.6582 10.232 83.9462 10.536C84.2502 10.824 84.6742 11.384 85.2182 12.216L85.6022 12.816C85.9062 13.312 86.1462 13.68 86.3222 13.92C86.5142 14.16 86.7302 14.352 86.9702 14.496C87.2262 14.624 87.5542 14.696 87.9542 14.712ZM96.7356 13.704C96.7996 13.704 96.8396 13.744 96.8556 13.824C96.8716 13.888 96.8476 13.936 96.7836 13.968L94.3116 15.144C94.2476 15.176 94.1756 15.192 94.0956 15.192C93.8876 15.192 93.6956 15.056 93.5196 14.784C93.3596 14.496 93.2476 14.112 93.1836 13.632L91.9836 14.424C91.5996 14.696 91.2476 14.888 90.9276 15C90.6236 15.112 90.2956 15.168 89.9436 15.168C89.3356 15.168 88.8636 15.016 88.5276 14.712C88.1916 14.392 88.0236 13.992 88.0236 13.512C88.0236 13 88.2236 12.576 88.6236 12.24C89.0396 11.888 89.6956 11.544 90.5916 11.208L93.1596 10.272V8.688C93.1596 7.728 93.0316 7.032 92.7756 6.6C92.5356 6.168 92.1756 5.952 91.6956 5.952C91.1676 5.952 90.7676 6.136 90.4956 6.504C90.2236 6.872 90.0476 7.288 89.9676 7.752C89.8716 8.456 89.5436 8.808 88.9836 8.808C88.6956 8.808 88.4796 8.736 88.3356 8.592C88.1916 8.448 88.1196 8.272 88.1196 8.064C88.1196 7.664 88.3676 7.264 88.8636 6.864C89.3756 6.464 89.9836 6.136 90.6876 5.88C91.4076 5.624 92.0396 5.496 92.5836 5.496C93.2396 5.496 93.7436 5.712 94.0956 6.144C94.4636 6.56 94.6476 7.168 94.6476 7.968V12.408C94.6476 12.952 94.7196 13.352 94.8636 13.608C95.0236 13.864 95.2636 13.992 95.5836 13.992C95.8716 13.992 96.2396 13.896 96.6876 13.704H96.7356ZM93.1596 13.272V13.128V10.608L91.1436 11.424C90.7116 11.584 90.3836 11.784 90.1596 12.024C89.9356 12.248 89.8236 12.536 89.8236 12.888C89.8236 13.272 89.9436 13.592 90.1836 13.848C90.4396 14.088 90.7596 14.208 91.1436 14.208C91.4636 14.208 91.8236 14.088 92.2236 13.848L93.1596 13.272ZM105.014 14.712C105.062 14.712 105.086 14.76 105.086 14.856C105.086 14.952 105.062 15 105.014 15C104.646 15 104.358 14.992 104.15 14.976L102.95 14.952L101.63 14.976C101.422 14.992 101.118 15 100.718 15C100.686 15 100.67 14.952 100.67 14.856C100.67 14.76 100.686 14.712 100.718 14.712C101.134 14.712 101.438 14.672 101.63 14.592C101.822 14.512 101.95 14.36 102.014 14.136C102.078 13.912 102.11 13.552 102.11 13.056V10.728C101.534 10.76 101.022 10.944 100.574 11.28C100.126 11.616 99.6697 12.208 99.2057 13.056L98.8937 13.632C98.6057 14.192 98.3977 14.56 98.2697 14.736C98.1417 14.912 97.9897 15 97.8137 15H95.6057C95.5737 15 95.5577 14.952 95.5577 14.856C95.5577 14.76 95.5737 14.712 95.6057 14.712C96.0857 14.712 96.4617 14.56 96.7337 14.256C97.0217 13.936 97.2457 13.624 97.4057 13.32C97.5657 13.016 97.6697 12.824 97.7177 12.744C98.3577 11.576 99.2937 10.904 100.526 10.728C98.4937 10.584 97.4777 9.776 97.4777 8.304C97.4777 7.488 97.7737 6.848 98.3657 6.384C98.9577 5.904 99.7257 5.664 100.67 5.664C100.894 5.664 101.278 5.68 101.822 5.712C102.206 5.76 102.582 5.784 102.95 5.784L104.126 5.76C104.334 5.744 104.622 5.736 104.99 5.736C105.038 5.736 105.062 5.784 105.062 5.88C105.062 5.976 105.038 6.024 104.99 6.024C104.606 6.024 104.318 6.072 104.126 6.168C103.934 6.248 103.798 6.4 103.718 6.624C103.638 6.848 103.598 7.2 103.598 7.68V13.056C103.598 13.52 103.638 13.872 103.718 14.112C103.798 14.336 103.934 14.496 104.126 14.592C104.334 14.672 104.63 14.712 105.014 14.712ZM99.0857 7.8C99.0857 8.552 99.2697 9.176 99.6377 9.672C100.022 10.168 100.558 10.416 101.246 10.416C101.438 10.416 101.726 10.4 102.11 10.368V7.728C102.11 7.024 102.022 6.552 101.846 6.312C101.686 6.072 101.342 5.952 100.814 5.952C100.238 5.952 99.8057 6.096 99.5177 6.384C99.2297 6.672 99.0857 7.144 99.0857 7.8Z" fill="white"/>
</svg>
