<svg width="329" height="328" viewBox="0 0 329 328" fill="none" xmlns="http://www.w3.org/2000/svg">
<g filter="url(#filter0_bd)">
<circle cx="164.361" cy="164" r="66" fill="white" fill-opacity="0.01"/>
<circle cx="164.361" cy="164" r="65.5" stroke="#040404"/>
</g>
<path d="M137.312 171.804L155.419 168.604C156.336 168.443 157.25 168.893 157.681 169.718L162.071 178.132C169.84 174.691 176.048 168.479 179.486 160.709L171.081 156.318C170.256 155.888 169.806 154.973 169.967 154.057L173.167 135.951C173.267 135.382 173.594 134.877 174.073 134.553C178.651 131.466 184.56 131.155 189.436 133.747C194.312 136.34 197.359 141.412 197.359 146.934C197.328 174.02 175.378 195.97 148.292 196C142.769 195.999 137.697 192.95 135.106 188.073C132.515 183.195 132.827 177.286 135.919 172.709C136.242 172.232 136.744 171.904 137.312 171.804ZM148.292 194C174.859 194 194.859 172 195.359 146.934C194.859 141.5 192.859 138.584 188.359 135.951C185.088 134.038 178.359 132.564 175.359 137.5L172.359 154.057L181.359 158.5C182.317 159 182.241 159.989 181.859 161C176.859 171 171.859 176 162.359 180.5C161.347 180.883 160.359 181.459 159.859 180.5L155.419 170.5L139.089 173C134.359 176.5 134.859 183 136.859 187C138.359 191 144.504 194 148.292 194Z" fill="black"/>
<path d="M86.3078 141.136C86.767 139.955 87.4396 139.089 88.3258 138.539C89.1966 137.984 90.1449 137.862 91.1706 138.174C91.9973 138.425 92.6708 138.905 93.191 139.615C93.6958 140.32 94.0071 141.167 94.1248 142.156C94.2318 143.125 94.1273 144.13 93.8111 145.171C93.6065 145.845 93.3323 146.472 92.9886 147.053C92.6495 147.619 92.291 148.029 91.9131 148.282C91.7947 148.396 91.7079 148.462 91.6527 148.478C91.5822 148.49 91.4604 148.479 91.2873 148.443L88.2872 147.832C88.2566 147.823 88.2452 147.778 88.2532 147.697C88.2657 147.6 88.2973 147.551 88.3479 147.55C89.1858 147.654 89.9738 147.592 90.7117 147.365C91.439 147.118 92.054 146.744 92.5569 146.245C93.0597 145.745 93.4088 145.174 93.6041 144.531C93.8691 143.659 93.7246 142.896 93.1705 142.242C92.6058 141.569 91.8182 141.079 90.8078 140.772C89.5677 140.396 88.5315 140.449 87.6992 140.932C86.8563 141.395 86.2465 142.246 85.8699 143.486C85.8513 143.548 85.796 143.564 85.7042 143.536C85.6123 143.509 85.5757 143.464 85.5943 143.403C85.9384 142.27 85.9056 141.332 85.4959 140.589C85.0861 139.846 84.3608 139.316 83.3197 139C82.2787 138.683 81.4122 138.646 80.7202 138.887C80.0282 139.129 79.5683 139.624 79.3404 140.375C79.0986 141.171 79.2329 142.022 79.7432 142.93C80.2535 143.837 81.0516 144.623 82.1374 145.287C82.168 145.297 82.174 145.332 82.1554 145.393C82.1461 145.424 82.1268 145.46 82.0976 145.501C82.0577 145.522 82.03 145.531 82.0147 145.526L79.0811 144.284C78.9067 144.198 78.7935 144.13 78.7416 144.08C78.6896 144.031 78.6616 143.931 78.6576 143.779C78.6022 142.475 78.7582 141.218 79.1256 140.008C79.4185 139.044 79.8104 138.277 80.3012 137.707C80.7767 137.132 81.3006 136.756 81.8728 136.579C82.4344 136.381 82.9984 136.369 83.5649 136.541C84.4222 136.801 85.0961 137.39 85.5864 138.309C86.0814 139.211 86.3218 140.154 86.3078 141.136Z" fill="black"/>
<path d="M98.6109 129.115C98.6384 129.057 98.6917 129.038 98.7708 129.058C98.8355 129.071 98.8685 129.113 98.8699 129.185L98.8692 131.922C98.8706 131.994 98.8541 132.066 98.8197 132.138C98.7165 132.355 98.494 132.506 98.1521 132.591C97.8027 132.655 97.4047 132.616 96.9583 132.475L97.1772 133.802C97.2577 134.265 97.2798 134.666 97.2434 135.003C97.2138 135.325 97.1165 135.66 96.9515 136.007C96.6695 136.599 96.3156 136.989 95.8898 137.176C95.4565 137.342 95.0086 137.315 94.5464 137.095C94.1563 136.909 93.8866 136.656 93.7373 136.337C93.5949 136.004 93.5271 135.644 93.5339 135.257C93.5332 134.849 93.5685 134.272 93.64 133.527L93.8605 131.053L92.5603 130.434C91.6647 130.008 90.9699 129.792 90.476 129.787C89.9745 129.761 89.6309 129.943 89.4452 130.333C89.2183 130.81 89.2338 131.243 89.4918 131.632C89.7422 131.999 90.0738 132.307 90.4866 132.557C91.1821 132.994 91.3751 133.538 91.0656 134.188C90.9143 134.506 90.7286 134.71 90.5085 134.8C90.2953 134.876 90.0803 134.862 89.8636 134.759C89.4591 134.566 89.1825 134.142 89.0339 133.487C88.8776 132.81 88.8456 132.077 88.9376 131.288C89.0222 130.478 89.1882 129.812 89.4358 129.292C89.7315 128.671 90.1604 128.273 90.7224 128.097C91.2912 127.907 91.9657 127.998 92.7458 128.369L96.6464 130.226C97.0943 130.44 97.4681 130.529 97.7681 130.495C98.068 130.46 98.2833 130.306 98.4139 130.031C98.5171 129.814 98.5759 129.523 98.5903 129.158L98.6109 129.115ZM96.5909 132.353L96.3742 132.25L94.2289 131.229L94.1517 132.787C94.1174 133.231 94.1429 133.624 94.2282 133.966C94.306 134.287 94.5254 134.533 94.8866 134.705C95.2333 134.87 95.5666 134.896 95.8865 134.782C96.1987 134.647 96.4305 134.421 96.5818 134.103C96.7056 133.843 96.7496 133.527 96.7138 133.156L96.5909 132.353Z" fill="black"/>
<path d="M105.64 120.203C105.666 120.163 105.719 120.169 105.799 120.223C105.879 120.276 105.906 120.323 105.879 120.362L104.335 122.679C104.256 122.799 104.158 122.888 104.043 122.945C103.923 122.981 103.674 123.008 103.297 123.025C102.915 123.021 102.281 122.992 101.393 122.939C100.603 122.913 100.015 122.915 99.6293 122.946C99.23 122.968 98.9171 123.048 98.6908 123.186C98.4512 123.315 98.2249 123.539 98.012 123.858L97.9188 123.998L100.136 125.476C100.535 125.742 100.852 125.915 101.088 125.995C101.318 126.052 101.516 126.03 101.68 125.928C101.853 125.813 102.05 125.588 102.272 125.256C102.299 125.216 102.352 125.222 102.432 125.275C102.512 125.329 102.539 125.375 102.512 125.415C102.272 125.775 102.079 126.05 101.933 126.241L101.194 127.306L100.456 128.458C100.336 128.666 100.152 128.957 99.9033 129.33C99.8767 129.37 99.8235 129.363 99.7436 129.31C99.6637 129.256 99.637 129.21 99.6637 129.17C99.8944 128.824 100.03 128.549 100.07 128.344C100.109 128.14 100.054 127.95 99.9031 127.772C99.7388 127.586 99.457 127.359 99.0576 127.093L94.584 124.112C94.1845 123.846 93.8739 123.677 93.652 123.606C93.4168 123.526 93.2127 123.544 93.0396 123.66C92.8666 123.775 92.6691 123.999 92.4473 124.332C92.4296 124.359 92.3807 124.345 92.3009 124.292C92.221 124.239 92.1899 124.199 92.2077 124.172C92.4472 123.813 92.6402 123.538 92.7866 123.347L93.5652 122.222L94.3838 120.95C94.5124 120.728 94.7054 120.424 94.9627 120.038C94.9804 120.012 95.0293 120.025 95.1092 120.078C95.189 120.131 95.2201 120.171 95.2024 120.198C94.9362 120.597 94.7765 120.923 94.7233 121.176C94.6656 121.407 94.7145 121.622 94.8698 121.822C95.0119 122.013 95.2892 122.246 95.702 122.521L97.5793 123.772L98.2448 122.687C98.3601 122.514 98.3645 122.276 98.258 121.975C98.1514 121.673 98.0049 121.373 97.8185 121.076C97.1438 119.896 96.7398 119.002 96.6066 118.394C96.46 117.777 96.5331 117.249 96.826 116.809C97.0655 116.45 97.3295 116.241 97.618 116.184C97.902 116.104 98.1771 116.152 98.4434 116.33C98.7097 116.507 98.8717 116.74 98.9294 117.029C98.996 117.304 98.9273 117.595 98.7232 117.901C98.6079 118.074 98.4259 118.231 98.1775 118.373C98.1464 118.391 98.0798 118.433 97.9778 118.5C97.8757 118.567 97.7848 118.66 97.7049 118.78C97.5807 118.966 97.563 119.223 97.6518 119.552C97.7362 119.858 97.9226 120.271 98.2112 120.79C98.4952 121.287 98.6684 121.691 98.7306 122.001C99.0012 121.682 99.2674 121.455 99.5292 121.322C99.7999 121.176 100.117 121.089 100.481 121.062C100.84 121.013 101.384 120.991 102.112 120.995C102.17 120.995 102.478 121.009 103.037 121.035C103.57 121.044 103.967 121.04 104.229 121.022C104.49 121.004 104.737 120.937 104.967 120.822C105.198 120.706 105.422 120.5 105.64 120.203Z" fill="black"/>
<path d="M111.392 112.28C111.435 112.232 111.491 112.229 111.562 112.271C111.62 112.301 111.64 112.351 111.621 112.42L110.851 115.047C110.833 115.116 110.797 115.181 110.743 115.24C110.583 115.419 110.327 115.502 109.975 115.488C109.622 115.451 109.251 115.302 108.862 115.041L108.7 116.376C108.647 116.843 108.555 117.234 108.426 117.547C108.307 117.848 108.119 118.142 107.864 118.428C107.427 118.918 106.978 119.192 106.516 119.252C106.054 119.29 105.632 119.138 105.25 118.797C104.928 118.509 104.74 118.191 104.686 117.843C104.643 117.483 104.679 117.118 104.794 116.749C104.908 116.357 105.104 115.813 105.382 115.118L106.289 112.806L105.215 111.847C104.475 111.186 103.868 110.784 103.396 110.641C102.922 110.475 102.541 110.553 102.253 110.875C101.901 111.269 101.795 111.689 101.933 112.134C102.07 112.557 102.302 112.946 102.628 113.302C103.173 113.917 103.205 114.493 102.726 115.03C102.491 115.292 102.256 115.436 102.019 115.461C101.793 115.473 101.591 115.4 101.412 115.24C101.077 114.942 100.931 114.457 100.973 113.786C101.013 113.092 101.188 112.38 101.498 111.649C101.807 110.895 102.153 110.303 102.537 109.873C102.995 109.36 103.518 109.098 104.107 109.088C104.706 109.065 105.328 109.342 105.973 109.917L109.195 112.795C109.564 113.126 109.898 113.316 110.196 113.368C110.493 113.419 110.743 113.331 110.946 113.104C111.106 112.925 111.244 112.662 111.36 112.316L111.392 112.28ZM108.544 114.821L108.365 114.661L106.593 113.078L106.081 114.552C105.923 114.968 105.837 115.353 105.823 115.705C105.808 116.034 105.949 116.332 106.248 116.599C106.534 116.855 106.847 116.973 107.185 116.954C107.523 116.912 107.809 116.76 108.044 116.498C108.235 116.283 108.366 115.992 108.436 115.625L108.544 114.821Z" fill="black"/>
<path d="M113.047 105.693C113.803 105.124 114.549 104.849 115.285 104.868C116.021 104.887 116.635 105.181 117.127 105.749C117.703 106.415 117.857 107.18 117.591 108.046C117.324 108.911 116.737 109.737 115.83 110.522C114.91 111.318 114.053 111.806 113.257 111.987C113.141 112.024 113.055 112.035 113 112.019C112.944 112.004 112.868 111.953 112.772 111.867L111.198 110.341C111.167 110.305 111.176 110.254 111.226 110.19C111.288 110.115 111.346 110.097 111.4 110.135C112.185 110.577 112.945 110.807 113.681 110.826C114.407 110.833 115.042 110.601 115.586 110.13C116.021 109.753 116.222 109.325 116.189 108.846C116.167 108.357 115.937 107.858 115.497 107.35C114.953 106.721 114.364 106.384 113.732 106.338C113.113 106.282 112.434 106.574 111.696 107.212C111.647 107.254 111.591 107.25 111.526 107.2C111.452 107.138 111.45 107.076 111.523 107.013C112.188 106.437 112.555 105.907 112.624 105.425C112.705 104.931 112.531 104.437 112.102 103.941C111.693 103.469 111.282 103.19 110.869 103.103C110.456 103.017 110.061 103.136 109.686 103.46C109.251 103.837 109.005 104.336 108.949 104.956C108.905 105.565 109 106.298 109.233 107.154C109.231 107.176 109.206 107.209 109.158 107.251C109.061 107.334 108.998 107.347 108.968 107.288L107.344 104.568C107.323 104.543 107.336 104.51 107.385 104.468C107.421 104.437 107.468 104.418 107.525 104.41C107.572 104.391 107.594 104.393 107.593 104.415C107.622 104.474 107.669 104.54 107.732 104.613C107.91 104.818 108.095 104.837 108.289 104.67C108.422 104.555 108.555 104.366 108.687 104.103C108.856 103.809 109.027 103.555 109.202 103.34C109.377 103.103 109.623 102.849 109.937 102.577C110.627 101.98 111.28 101.647 111.898 101.578C112.505 101.497 113.018 101.698 113.437 102.182C113.782 102.582 113.921 103.096 113.853 103.727C113.785 104.357 113.516 105.013 113.047 105.693Z" fill="black"/>
<path d="M126.561 100.73C126.615 100.694 126.67 100.706 126.728 100.763C126.776 100.808 126.783 100.861 126.747 100.923L125.338 103.27C125.303 103.332 125.251 103.385 125.185 103.43C124.985 103.562 124.716 103.577 124.379 103.475C124.047 103.35 123.725 103.112 123.416 102.761L122.921 104.011C122.751 104.45 122.564 104.805 122.359 105.075C122.168 105.336 121.912 105.573 121.592 105.786C121.046 106.149 120.542 106.301 120.081 106.242C119.624 106.161 119.254 105.908 118.97 105.481C118.731 105.121 118.63 104.766 118.666 104.416C118.716 104.056 118.843 103.712 119.048 103.384C119.257 103.034 119.584 102.558 120.029 101.955L121.491 99.9479L120.694 98.7482C120.146 97.9217 119.661 97.3794 119.24 97.1212C118.823 96.8408 118.435 96.8201 118.075 97.059C117.635 97.351 117.426 97.7301 117.447 98.196C117.473 98.6399 117.598 99.075 117.824 99.5014C118.195 100.234 118.081 100.8 117.481 101.198C117.188 101.393 116.924 101.472 116.688 101.436C116.467 101.391 116.289 101.269 116.157 101.069C115.909 100.696 115.89 100.19 116.1 99.5513C116.314 98.8905 116.664 98.2456 117.149 97.6164C117.638 96.965 118.123 96.48 118.602 96.1614C119.176 95.7809 119.748 95.66 120.321 95.7987C120.906 95.9285 121.438 96.3533 121.916 97.0731L124.305 100.672C124.579 101.085 124.854 101.354 125.129 101.479C125.404 101.604 125.668 101.582 125.921 101.414C126.121 101.281 126.321 101.062 126.521 100.756L126.561 100.73ZM123.163 102.467L123.03 102.267L121.716 100.288L120.848 101.584C120.59 101.947 120.41 102.298 120.307 102.635C120.209 102.95 120.27 103.274 120.492 103.607C120.704 103.927 120.977 104.12 121.309 104.188C121.647 104.233 121.962 104.158 122.255 103.963C122.495 103.804 122.695 103.556 122.856 103.219L123.163 102.467Z" fill="black"/>
<path d="M129.62 100.635C129.576 100.656 129.534 100.623 129.492 100.536C129.45 100.45 129.451 100.396 129.494 100.375C129.868 100.194 130.124 100.025 130.262 99.8696C130.4 99.7138 130.449 99.5212 130.409 99.2917C130.362 99.0478 130.233 98.71 130.024 98.2781L127.699 93.484C127.441 92.9513 127.216 92.6158 127.024 92.4775C126.847 92.3323 126.608 92.3329 126.305 92.4795C125.801 92.7239 125.474 93.1492 125.324 93.7557C125.166 94.3477 125.201 95.0423 125.427 95.8393C125.441 95.8681 125.405 95.9034 125.319 95.9453C125.247 95.9802 125.204 95.9833 125.19 95.9545L124.518 94.6797C124.427 94.5284 124.322 94.3482 124.203 94.1392C124.077 93.9159 123.944 93.6602 123.804 93.3723C123.762 93.2859 123.745 93.232 123.752 93.2106C123.753 93.1749 123.796 93.136 123.883 93.0941C124.185 92.9475 124.462 92.8221 124.714 92.7178L127.661 91.3153L130.674 89.8276C130.912 89.6945 131.182 89.5547 131.484 89.4081C131.585 89.3592 131.649 89.3457 131.678 89.3675C131.699 89.3749 131.731 89.4218 131.773 89.5082C132.399 90.9828 132.789 91.8784 132.942 92.1952C132.956 92.224 132.92 92.2593 132.834 92.3012C132.762 92.3361 132.711 92.3426 132.683 92.3208C132.212 91.6424 131.695 91.1818 131.133 90.9388C130.563 90.6814 130.027 90.6749 129.523 90.9192C129.22 91.0658 129.064 91.2572 129.054 91.4932C129.059 91.7222 129.19 92.1031 129.448 92.6358L131.773 97.4298C131.982 97.8617 132.168 98.1717 132.331 98.3597C132.5 98.5264 132.682 98.6073 132.875 98.6025C133.083 98.5907 133.367 98.4975 133.726 98.323C133.77 98.3021 133.812 98.3348 133.854 98.4212C133.896 98.5075 133.895 98.5612 133.852 98.5822C133.463 98.7706 133.158 98.9101 132.935 99.0004L131.758 99.5442L130.538 100.163C130.329 100.282 130.023 100.439 129.62 100.635Z" fill="black"/>
<path d="M140.262 90.3205C142.498 89.5895 143.874 90.0148 144.391 91.5964C144.67 92.448 144.569 93.2469 144.089 93.993C143.624 94.7341 142.89 95.2688 141.887 95.597C141.689 95.6616 141.266 95.7832 140.617 95.9616C139.877 96.1699 139.355 96.3237 139.051 96.4232L137.758 96.8712C137.535 96.961 137.21 97.0755 136.785 97.2147C136.739 97.2297 136.701 97.1915 136.671 97.1002C136.642 97.009 136.65 96.9559 136.695 96.941C137.075 96.8167 137.344 96.6867 137.502 96.5509C137.66 96.4152 137.734 96.231 137.725 95.9982C137.727 95.7452 137.653 95.3906 137.504 94.9344L135.833 89.8246C135.683 89.3684 135.536 89.0463 135.39 88.8582C135.255 88.65 135.084 88.5377 134.876 88.5213C134.684 88.5 134.398 88.5515 134.018 88.6758C133.972 88.6907 133.934 88.6526 133.905 88.5613C133.875 88.4701 133.883 88.417 133.928 88.4021C134.339 88.2678 134.661 88.171 134.894 88.1116L136.201 87.7092L137.586 87.2314C137.839 87.1317 138.194 87.0072 138.65 86.858C138.681 86.8481 138.711 86.8887 138.741 86.98C138.77 87.0712 138.77 87.1218 138.74 87.1318C138.268 87.2859 137.941 87.4434 137.758 87.6043C137.575 87.7652 137.483 87.9721 137.481 88.225C137.475 88.4628 137.546 88.8098 137.695 89.266L138.329 91.205C138.873 90.859 139.517 90.5642 140.262 90.3205ZM141.318 95.404C141.972 95.1901 142.397 94.8662 142.591 94.4322C142.786 93.9982 142.772 93.439 142.548 92.7546C142.304 92.0095 141.938 91.4812 141.449 91.1697C140.955 90.8431 140.335 90.8016 139.59 91.0453C139.164 91.1845 138.789 91.3746 138.464 91.6156L139.351 94.3302C139.535 94.8929 139.766 95.2635 140.043 95.4422C140.315 95.6057 140.741 95.5929 141.318 95.404Z" fill="black"/>
<path d="M155.311 92.9863C154.357 93.0929 153.489 92.9644 152.708 92.6009C151.925 92.2215 151.292 91.6724 150.809 90.9535C150.325 90.2188 150.032 89.3982 149.93 88.4919C149.815 87.4583 149.972 86.5553 150.4 85.7829C150.844 84.9928 151.443 84.3785 152.199 83.9398C152.969 83.4835 153.776 83.2083 154.618 83.1141C155.588 83.0058 156.457 83.1422 157.224 83.5234C158.007 83.9028 158.632 84.4528 159.099 85.1734C159.564 85.8781 159.844 86.6598 159.94 87.5185C160.047 88.4725 159.903 89.3499 159.51 90.1505C159.132 90.9494 158.569 91.6 157.82 92.1022C157.069 92.5886 156.233 92.8833 155.311 92.9863ZM155.973 92.4293C156.673 92.3512 157.171 91.9816 157.467 91.3206C157.779 90.6578 157.869 89.7301 157.736 88.5375C157.617 87.4722 157.362 86.5588 156.971 85.7975C156.596 85.0344 156.131 84.4746 155.576 84.118C155.037 83.7597 154.473 83.6134 153.884 83.6791C153.169 83.759 152.661 84.1136 152.361 84.7428C152.061 85.372 151.975 86.259 152.103 87.4039C152.218 88.4375 152.458 89.3526 152.82 90.1492C153.197 90.9282 153.658 91.5207 154.202 91.9268C154.762 92.3311 155.353 92.4986 155.973 92.4293Z" fill="black"/>
<path d="M167.499 82.9773C168.474 83.0133 169.265 83.2746 169.871 83.7613C170.494 84.2486 170.936 84.8493 171.198 85.5634C171.46 86.2776 171.577 87.0104 171.549 87.7619C171.513 88.7532 171.233 89.6155 170.709 90.3487C170.202 91.0825 169.533 91.6422 168.702 92.0278C167.888 92.398 167.017 92.5661 166.09 92.5319C165.226 92.5 164.443 92.247 163.74 91.7727C163.053 91.2991 162.512 90.5666 162.116 89.5754C161.721 88.5681 161.551 87.297 161.608 85.7621C161.665 84.2111 161.991 82.7581 162.585 81.4031C163.196 80.0327 164.031 78.9027 165.088 78.0131C166.162 77.124 167.406 76.5935 168.821 76.4216C169.545 76.3362 170.044 76.2586 170.319 76.1886C170.594 76.1027 170.791 75.9819 170.909 75.8261C171.042 75.671 171.181 75.3879 171.324 74.9769C171.342 74.9295 171.391 74.9153 171.47 74.9342C171.549 74.9532 171.58 74.9863 171.562 75.0337C171.453 75.3979 171.369 75.715 171.311 75.9851C171.015 77.0629 170.776 77.6945 170.593 77.8799C170.41 78.0653 170.045 78.1879 169.498 78.2478C168.952 78.2917 168.519 78.3317 168.197 78.3679L167.643 78.4195C166.325 78.563 165.445 78.7467 165.005 78.9706C164.565 79.1786 164.267 79.6559 164.111 80.4027C163.956 81.1335 163.84 82.5461 163.763 84.6407C164.233 84.0497 164.793 83.622 165.443 83.3578C166.094 83.0776 166.779 82.9508 167.499 82.9773ZM166.875 92.0805C168.362 92.1353 169.151 90.9076 169.244 88.3973C169.3 86.8784 169.087 85.7017 168.606 84.8674C168.141 84.0177 167.493 83.5775 166.661 83.5468C165.878 83.5179 165.225 83.8461 164.704 84.5313C164.182 85.2006 163.904 86.0229 163.868 86.9982C163.835 87.8936 163.933 88.7218 164.161 89.4827C164.389 90.2436 164.734 90.8648 165.197 91.3461C165.66 91.8115 166.219 92.0563 166.875 92.0805Z" fill="black"/>
<path d="M177.457 93.798C177.017 93.7113 176.639 93.6042 176.322 93.4764C176.001 93.3643 175.681 93.2115 175.36 93.0178L174.451 97.6331C174.358 98.104 174.345 98.4602 174.411 98.7016C174.478 98.9431 174.653 99.1324 174.935 99.2697C175.215 99.4226 175.669 99.561 176.297 99.6847C176.344 99.694 176.358 99.7458 176.34 99.8399C176.321 99.9341 176.288 99.9766 176.241 99.9673C175.676 99.8559 175.238 99.7615 174.927 99.6839L173.095 99.2984L171.701 99.0482C171.463 99.0175 171.131 98.9604 170.708 98.8768C170.661 98.8676 170.646 98.8158 170.665 98.7216C170.683 98.6275 170.716 98.585 170.763 98.5943C171.171 98.6747 171.487 98.6879 171.709 98.634C171.929 98.5957 172.101 98.4666 172.226 98.2465C172.348 98.0422 172.454 97.7125 172.543 97.2572L174.859 85.5072C174.989 84.8479 174.948 84.3914 174.737 84.1379C174.545 83.8717 174.127 83.6752 173.484 83.5483C173.452 83.5422 173.446 83.492 173.464 83.3978C173.483 83.3036 173.508 83.2596 173.539 83.2658L176.648 83.8783C176.852 83.9185 176.977 83.9841 177.025 84.0749C177.072 84.1658 177.074 84.3211 177.031 84.5409L176.873 85.3415C177.615 84.8844 178.303 84.5796 178.937 84.4272C179.586 84.2779 180.216 84.2636 180.829 84.3842C181.488 84.5142 182.066 84.8075 182.563 85.2642C183.06 85.7209 183.409 86.3114 183.608 87.0357C183.824 87.7631 183.845 88.5663 183.672 89.4454C183.427 90.6856 182.967 91.6549 182.291 92.3534C181.616 93.0519 180.84 93.5107 179.965 93.7297C179.109 93.9361 178.273 93.9588 177.457 93.798ZM179.231 85.2925C178.807 85.2089 178.398 85.2179 178.003 85.3195C177.611 85.4053 177.202 85.5775 176.775 85.836L175.653 91.5344C175.949 92.0168 176.279 92.4081 176.644 92.7083C177.009 93.0085 177.498 93.2189 178.11 93.3396C178.895 93.4942 179.581 93.2789 180.17 92.6936C180.761 92.0926 181.19 91.1171 181.456 89.767C181.697 88.5426 181.602 87.5372 181.17 86.7508C180.741 85.9487 180.094 85.4626 179.231 85.2925Z" fill="black"/>
<path d="M193.684 96.9849C193.744 97.0068 193.768 97.058 193.755 97.1387C193.749 97.2043 193.71 97.2412 193.638 97.2494L190.913 97.51C190.842 97.5182 190.769 97.5086 190.694 97.4813C190.468 97.3993 190.297 97.1922 190.179 96.86C190.082 96.5183 190.083 96.1185 190.181 95.6605L188.881 96.0051C188.428 96.1295 188.031 96.1897 187.692 96.1856C187.368 96.187 187.026 96.1221 186.665 95.9909C186.048 95.7667 185.627 95.4516 185.4 95.0457C185.193 94.6301 185.177 94.1818 185.352 93.7006C185.5 93.2946 185.725 93.002 186.029 92.8229C186.347 92.6493 186.699 92.5474 187.085 92.5174C187.491 92.4777 188.068 92.4578 188.818 92.4578L191.301 92.4412L191.793 91.0879C192.132 90.1556 192.28 89.4434 192.237 88.9513C192.216 88.4496 192.002 88.125 191.596 87.9774C191.099 87.7969 190.67 87.8537 190.308 88.1476C189.966 88.432 189.691 88.7915 189.482 89.2262C189.113 89.9603 188.59 90.2043 187.913 89.9583C187.582 89.8381 187.362 89.6727 187.251 89.4622C187.155 89.2571 187.148 89.0418 187.23 88.8163C187.383 88.3952 187.779 88.0794 188.417 87.8689C189.076 87.6488 189.803 87.5469 190.597 87.5632C191.412 87.57 192.09 87.6718 192.631 87.8686C193.278 88.1037 193.715 88.4926 193.943 89.0352C194.187 89.5834 194.161 90.2635 193.866 91.0755L192.39 95.1355C192.22 95.6016 192.167 95.9823 192.23 96.2776C192.293 96.5728 192.467 96.7724 192.753 96.8763C192.978 96.9583 193.273 96.989 193.638 96.9685L193.684 96.9849ZM190.267 95.2832L190.349 95.0577L191.161 92.8247L189.603 92.8965C189.157 92.9048 188.768 92.9677 188.436 93.0852C188.125 93.1933 187.9 93.4352 187.764 93.8111C187.632 94.172 187.639 94.5063 187.782 94.8138C187.946 95.1118 188.194 95.3209 188.525 95.4412C188.795 95.5396 189.114 95.5533 189.48 95.4822L190.267 95.2832Z" fill="black"/>
<path d="M195.559 99.3789C195.517 99.3566 195.518 99.3029 195.562 99.2179C195.607 99.1328 195.65 99.1015 195.693 99.1237C196.062 99.3167 196.349 99.4222 196.557 99.4404C196.764 99.4586 196.948 99.3833 197.108 99.2145C197.276 99.0316 197.472 98.7275 197.694 98.3022L200.166 93.582C200.44 93.0575 200.576 92.6772 200.573 92.441C200.585 92.2122 200.442 92.0199 200.144 91.864C199.648 91.6043 199.111 91.5943 198.534 91.834C197.965 92.0595 197.427 92.5004 196.921 93.1565C196.906 93.1848 196.856 93.1768 196.771 93.1322C196.7 93.0951 196.672 93.0624 196.687 93.034L197.312 91.736C197.38 91.5727 197.462 91.381 197.559 91.161C197.664 90.9267 197.79 90.6679 197.939 90.3844C197.983 90.2993 198.016 90.2534 198.038 90.2467C198.067 90.2257 198.124 90.2375 198.209 90.2821C198.507 90.4379 198.772 90.586 199.006 90.7263L201.886 92.2615L204.874 93.7987C205.123 93.9107 205.396 94.0446 205.693 94.2004C205.792 94.2524 205.842 94.2962 205.841 94.332C205.848 94.3536 205.829 94.4069 205.784 94.492C204.971 95.8723 204.483 96.7185 204.32 97.0303C204.305 97.0587 204.255 97.0506 204.17 97.006C204.099 96.9689 204.064 96.9325 204.065 96.8967C204.33 96.1144 204.393 95.425 204.254 94.8284C204.122 94.2176 203.808 93.7824 203.312 93.5226C203.014 93.3668 202.768 93.355 202.572 93.4873C202.39 93.6271 202.162 93.9592 201.888 94.4837L199.417 99.2039C199.194 99.6292 199.055 99.9629 199.001 100.205C198.968 100.441 199.011 100.635 199.129 100.787C199.262 100.947 199.506 101.12 199.86 101.306C199.903 101.328 199.902 101.381 199.857 101.466C199.813 101.552 199.769 101.583 199.727 101.561C199.344 101.36 199.05 101.197 198.845 101.072L197.708 100.45L196.485 99.8363C196.265 99.7391 195.956 99.5867 195.559 99.3789Z" fill="black"/>
<path d="M211.651 109.339C211.677 109.358 211.662 109.406 211.605 109.484C211.548 109.561 211.507 109.59 211.481 109.571C211.133 109.316 210.86 109.106 210.663 108.942L209.651 108.17L208.515 107.367C208.312 107.238 208.036 107.045 207.688 106.79C207.649 106.761 207.658 106.709 207.715 106.631C207.771 106.554 207.819 106.529 207.858 106.558C208.18 106.794 208.443 106.937 208.645 106.986C208.847 107.035 209.04 106.988 209.224 106.845C209.431 106.699 209.676 106.432 209.96 106.045L211.393 104.09L207.754 101.422L206.321 103.377C206.037 103.764 205.85 104.074 205.76 104.305C205.679 104.524 205.692 104.722 205.8 104.9C205.907 105.078 206.122 105.285 206.445 105.522C206.471 105.541 206.455 105.589 206.398 105.666C206.342 105.744 206.3 105.773 206.275 105.754C205.926 105.498 205.654 105.289 205.457 105.124L204.445 104.353L203.328 103.563C203.124 103.434 202.842 103.237 202.481 102.972C202.442 102.944 202.451 102.891 202.508 102.814C202.565 102.736 202.613 102.712 202.651 102.74C202.974 102.977 203.236 103.119 203.438 103.168C203.641 103.218 203.834 103.171 204.018 103.028C204.224 102.882 204.469 102.615 204.753 102.228L207.932 97.8923C208.216 97.5052 208.392 97.1977 208.46 96.9697C208.55 96.7383 208.541 96.5336 208.434 96.3556C208.339 96.187 208.13 95.9844 207.808 95.7479C207.769 95.7195 207.778 95.6666 207.835 95.5892C207.892 95.5118 207.939 95.4873 207.978 95.5157C208.327 95.7711 208.593 95.9762 208.777 96.131L209.866 96.9593L210.925 97.7063C211.141 97.8447 211.417 98.037 211.752 98.2829C211.778 98.3019 211.763 98.35 211.706 98.4275C211.649 98.5049 211.608 98.5341 211.582 98.5152C211.26 98.2787 210.992 98.1424 210.781 98.1063C210.569 98.0701 210.367 98.1299 210.173 98.2856C209.989 98.4285 209.755 98.6934 209.471 99.0805L208.066 100.997L211.705 103.665L213.138 101.71C213.422 101.323 213.598 101.015 213.666 100.787C213.756 100.556 213.748 100.351 213.64 100.173C213.546 100.004 213.337 99.8019 213.014 99.5653C212.976 99.537 212.985 99.4841 213.041 99.4066C213.098 99.3292 213.146 99.3047 213.185 99.3331C213.533 99.5885 213.799 99.7937 213.983 99.9485L215.072 100.777L216.132 101.524C216.348 101.662 216.623 101.854 216.959 102.1C216.985 102.119 216.969 102.167 216.912 102.245C216.856 102.322 216.814 102.352 216.789 102.333C216.466 102.096 216.199 101.96 215.987 101.924C215.776 101.888 215.573 101.947 215.38 102.103C215.196 102.246 214.962 102.511 214.678 102.898L211.527 107.195C211.244 107.582 211.056 107.891 210.966 108.122C210.885 108.341 210.899 108.539 211.006 108.717C211.114 108.895 211.329 109.103 211.651 109.339Z" fill="black"/>
<path d="M219.882 110.163C221.473 111.895 221.655 113.324 220.429 114.449C219.769 115.055 219 115.294 218.123 115.166C217.256 115.05 216.465 114.603 215.751 113.825C215.61 113.671 215.324 113.336 214.894 112.82C214.398 112.232 214.042 111.821 213.825 111.585L212.883 110.594C212.708 110.428 212.47 110.18 212.167 109.85C212.135 109.814 212.154 109.764 212.224 109.699C212.295 109.634 212.347 109.619 212.379 109.655C212.65 109.949 212.879 110.14 213.068 110.228C213.257 110.315 213.455 110.307 213.664 110.202C213.895 110.099 214.187 109.885 214.54 109.56L218.501 105.925C218.854 105.6 219.087 105.333 219.198 105.122C219.331 104.913 219.362 104.71 219.292 104.515C219.231 104.331 219.066 104.092 218.796 103.797C218.763 103.762 218.782 103.712 218.853 103.647C218.924 103.582 218.975 103.567 219.008 103.602C219.3 103.921 219.521 104.174 219.672 104.361L220.579 105.385L221.587 106.448C221.783 106.637 222.043 106.909 222.367 107.262C222.389 107.286 222.364 107.33 222.294 107.395C222.223 107.46 222.177 107.481 222.155 107.457C221.82 107.092 221.541 106.859 221.319 106.759C221.097 106.659 220.87 106.66 220.639 106.764C220.42 106.856 220.134 107.065 219.78 107.389L218.277 108.769C218.817 109.12 219.352 109.585 219.882 110.163ZM222.198 120.351C222.231 120.387 222.212 120.437 222.141 120.502C222.07 120.567 222.019 120.581 221.986 120.546C221.694 120.228 221.473 119.975 221.322 119.787L220.48 118.834L219.537 117.842C219.363 117.676 219.124 117.428 218.821 117.098C218.789 117.063 218.808 117.013 218.879 116.948C218.949 116.883 219.001 116.868 219.033 116.904C219.304 117.198 219.534 117.389 219.722 117.477C219.911 117.564 220.11 117.556 220.318 117.451C220.549 117.348 220.841 117.134 221.195 116.809L225.155 113.174C225.509 112.849 225.741 112.582 225.852 112.371C225.985 112.162 226.017 111.959 225.946 111.764C225.886 111.58 225.72 111.341 225.45 111.046C225.417 111.011 225.437 110.961 225.507 110.896C225.578 110.831 225.63 110.816 225.662 110.851C225.954 111.17 226.176 111.423 226.326 111.61L227.233 112.634L228.128 113.573C228.302 113.739 228.529 113.975 228.811 114.281C228.843 114.317 228.824 114.367 228.753 114.432C228.683 114.497 228.631 114.511 228.598 114.476C228.328 114.181 228.092 113.996 227.892 113.919C227.702 113.855 227.492 113.874 227.261 113.977C227.053 114.082 226.772 114.296 226.418 114.621L222.493 118.224C222.139 118.548 221.896 118.815 221.762 119.025C221.651 119.235 221.626 119.432 221.686 119.616C221.757 119.812 221.928 120.057 222.198 120.351ZM215.691 113.228C216.157 113.734 216.627 113.987 217.103 113.984C217.579 113.982 218.082 113.738 218.612 113.251C219.19 112.72 219.519 112.168 219.6 111.594C219.693 111.009 219.475 110.428 218.944 109.851C218.641 109.521 218.313 109.257 217.959 109.061L215.855 110.992C215.419 111.393 215.177 111.756 215.129 112.082C215.093 112.398 215.28 112.78 215.691 113.228Z" fill="black"/>
<path d="M235.731 121.223C235.424 120.717 235.222 120.185 235.125 119.626C235.029 119.066 235.041 118.563 235.162 118.115C235.297 117.659 235.528 117.331 235.856 117.131C236.089 116.99 236.308 116.95 236.514 117.012C236.734 117.066 236.923 117.223 237.081 117.482C237.28 117.811 237.317 118.088 237.193 118.313C237.081 118.531 236.839 118.809 236.465 119.149C236.137 119.442 235.912 119.719 235.79 119.98C235.69 120.247 235.769 120.592 236.027 121.016C236.276 121.426 236.553 121.651 236.858 121.69C237.184 121.735 237.564 121.682 237.997 121.532C238.43 121.381 238.768 121.306 239.012 121.308C239.27 121.301 239.491 121.448 239.673 121.748C239.823 121.994 239.871 122.227 239.817 122.447C239.764 122.667 239.627 122.844 239.409 122.976C239.067 123.184 238.662 123.243 238.195 123.152C237.742 123.053 237.289 122.832 236.838 122.489C236.399 122.137 236.031 121.716 235.731 121.223ZM229.246 131.624C229.263 131.652 229.23 131.69 229.148 131.74C229.066 131.79 229.016 131.801 229 131.774C228.767 131.391 228.595 131.093 228.484 130.88L227.832 129.76L227.101 128.603C226.954 128.392 226.769 128.103 226.544 127.734C226.528 127.706 226.56 127.668 226.642 127.618C226.724 127.568 226.774 127.557 226.79 127.584C227.006 127.939 227.199 128.178 227.367 128.301C227.535 128.424 227.731 128.454 227.956 128.392C228.194 128.322 228.518 128.163 228.928 127.913L233.235 125.296L224.073 123.899C223.994 123.891 223.921 123.833 223.854 123.723C223.813 123.655 223.789 123.585 223.783 123.514C223.764 123.451 223.768 123.411 223.795 123.394L230.132 119.543C230.542 119.294 230.827 119.083 230.985 118.912C231.157 118.733 231.227 118.541 231.196 118.335C231.164 118.129 231.045 117.856 230.837 117.514C230.82 117.486 230.853 117.448 230.935 117.398C231.017 117.348 231.066 117.337 231.083 117.364C231.274 117.679 231.417 117.929 231.511 118.115L232.239 119.358L233.182 120.863C233.287 121.005 233.401 121.179 233.526 121.384C233.551 121.425 233.522 121.47 233.44 121.52C233.358 121.57 233.305 121.575 233.28 121.534C233.072 121.192 232.884 120.96 232.716 120.837C232.548 120.715 232.341 120.681 232.094 120.738C231.869 120.799 231.552 120.955 231.142 121.204L226.814 123.834L235.976 125.231C236.07 125.23 236.15 125.285 236.216 125.394C236.258 125.463 236.281 125.532 236.287 125.604C236.315 125.68 236.315 125.727 236.288 125.744L229.951 129.595C229.54 129.845 229.249 130.059 229.078 130.238C228.919 130.409 228.856 130.598 228.887 130.803C228.919 131.009 229.038 131.282 229.246 131.624Z" fill="black"/>
<path d="M237.764 139.503C238.023 140.413 238.012 141.208 237.729 141.888C237.447 142.568 236.952 143.035 236.244 143.29C235.416 143.588 234.646 143.457 233.935 142.896C233.223 142.336 232.664 141.492 232.257 140.363C231.846 139.218 231.699 138.243 231.816 137.435C231.823 137.313 231.844 137.229 231.878 137.183C231.913 137.137 231.987 137.084 232.102 137.026L234.092 136.106C234.138 136.09 234.181 136.116 234.223 136.186C234.271 136.271 234.267 136.332 234.213 136.369C233.518 136.942 233.029 137.568 232.746 138.248C232.479 138.923 232.467 139.598 232.711 140.276C232.906 140.818 233.233 141.159 233.692 141.3C234.156 141.456 234.704 141.421 235.337 141.193C236.119 140.911 236.646 140.484 236.916 139.911C237.191 139.352 237.163 138.614 236.833 137.696C236.811 137.636 236.835 137.584 236.905 137.542C236.99 137.495 237.049 137.516 237.081 137.606C237.379 138.434 237.741 138.967 238.167 139.205C238.598 139.458 239.122 139.474 239.739 139.252C240.326 139.04 240.735 138.757 240.964 138.403C241.194 138.048 241.224 137.637 241.056 137.171C240.861 136.629 240.485 136.22 239.927 135.945C239.374 135.685 238.656 135.509 237.773 135.419C237.753 135.409 237.732 135.374 237.71 135.314C237.667 135.194 237.678 135.13 237.743 135.123L240.866 134.586C240.896 134.575 240.922 134.6 240.944 134.66C240.96 134.706 240.961 134.756 240.947 134.812C240.949 134.863 240.939 134.883 240.918 134.874C240.853 134.88 240.775 134.9 240.684 134.932C240.429 135.024 240.344 135.191 240.431 135.432C240.49 135.597 240.619 135.789 240.816 136.007C241.03 136.27 241.205 136.522 241.343 136.761C241.501 137.011 241.65 137.331 241.791 137.723C242.099 138.581 242.175 139.31 242.017 139.911C241.874 140.507 241.502 140.913 240.9 141.129C240.403 141.308 239.873 141.253 239.309 140.962C238.745 140.672 238.23 140.186 237.764 139.503Z" fill="black"/>
<path d="M240.659 150.267C240.914 152.176 240.401 153.272 239.119 153.553C238.276 153.739 237.501 153.532 236.796 152.933C236.095 152.35 235.621 151.496 235.374 150.37C235.333 150.183 235.256 149.757 235.143 149.094C235.009 148.337 234.907 147.795 234.835 147.466L234.518 146.135C234.451 145.904 234.369 145.57 234.273 145.133C234.263 145.086 234.305 145.052 234.398 145.031C234.492 145.011 234.544 145.024 234.554 145.071C234.64 145.462 234.743 145.742 234.862 145.912C234.981 146.083 235.157 146.175 235.39 146.19C235.641 146.216 236.002 146.178 236.47 146.075L241.721 144.923C242.19 144.82 242.525 144.705 242.727 144.579C242.948 144.465 243.077 144.306 243.114 144.101C243.154 143.912 243.131 143.622 243.046 143.231C243.035 143.184 243.077 143.151 243.171 143.13C243.265 143.11 243.317 143.123 243.327 143.17L243.813 145.495L244.099 146.686C244.267 147.304 244.382 147.754 244.444 148.035C244.671 149.067 244.694 149.881 244.513 150.477C244.336 151.089 243.951 151.461 243.357 151.591C242.951 151.68 242.528 151.617 242.087 151.403C241.647 151.188 241.171 150.81 240.659 150.267ZM243.894 147.542C243.828 147.245 243.741 147.035 243.632 146.911C243.523 146.788 243.352 146.719 243.12 146.704C242.887 146.69 242.545 146.732 242.091 146.832L240.028 147.285L240.497 149.418L240.548 149.652C241.006 149.797 241.579 149.795 242.266 149.644C242.97 149.489 243.448 149.245 243.703 148.911C243.957 148.576 244.02 148.12 243.894 147.542ZM235.732 149.874C236.037 151.265 236.838 151.818 238.135 151.533C238.839 151.379 239.351 151.062 239.671 150.582C239.995 150.118 240.07 149.487 239.895 148.69L239.607 147.377L236.887 147.974C236.34 148.094 235.972 148.282 235.782 148.536C235.611 148.803 235.595 149.249 235.732 149.874Z" fill="black"/>
<path d="M236.426 159.558C236.356 158.601 236.517 157.738 236.91 156.971C237.318 156.203 237.891 155.592 238.628 155.136C239.38 154.68 240.211 154.418 241.121 154.351C242.158 154.275 243.054 154.465 243.81 154.923C244.583 155.396 245.174 156.018 245.584 156.79C246.011 157.577 246.255 158.393 246.318 159.239C246.389 160.212 246.22 161.075 245.81 161.827C245.402 162.595 244.828 163.199 244.091 163.638C243.369 164.076 242.577 164.327 241.715 164.391C240.758 164.461 239.887 164.285 239.101 163.861C238.317 163.454 237.689 162.866 237.215 162.099C236.757 161.33 236.494 160.483 236.426 159.558ZM236.958 160.241C237.01 160.943 237.36 161.454 238.009 161.776C238.66 162.113 239.584 162.237 240.78 162.149C241.849 162.07 242.772 161.85 243.547 161.488C244.324 161.142 244.901 160.699 245.278 160.158C245.657 159.632 245.824 159.075 245.781 158.484C245.728 157.766 245.393 157.245 244.775 156.922C244.158 156.598 243.275 156.479 242.126 156.563C241.089 156.64 240.165 156.844 239.355 157.176C238.563 157.524 237.953 157.961 237.527 158.49C237.102 159.035 236.912 159.618 236.958 160.241Z" fill="black"/>
<path d="M236.56 176.579C236.557 176.611 236.508 176.623 236.412 176.615C236.317 176.607 236.27 176.587 236.273 176.555C236.308 176.124 236.345 175.782 236.382 175.528L236.511 174.263L236.603 172.874C236.606 172.633 236.626 172.297 236.662 171.867C236.666 171.819 236.716 171.799 236.811 171.807C236.907 171.815 236.953 171.843 236.949 171.891C236.916 172.289 236.931 172.588 236.995 172.786C237.059 172.984 237.2 173.124 237.418 173.206C237.65 173.306 238.006 173.375 238.484 173.415L240.9 173.616L241.273 169.119L238.858 168.919C238.379 168.879 238.018 168.881 237.773 168.925C237.545 168.97 237.383 169.085 237.287 169.27C237.192 169.455 237.127 169.746 237.094 170.145C237.091 170.177 237.042 170.189 236.947 170.181C236.851 170.173 236.804 170.153 236.807 170.121C236.843 169.69 236.879 169.348 236.916 169.095L237.046 167.829L237.135 166.464C237.139 166.223 237.159 165.88 237.196 165.433C237.2 165.385 237.25 165.365 237.346 165.373C237.442 165.381 237.487 165.409 237.483 165.457C237.45 165.856 237.466 166.154 237.53 166.352C237.593 166.55 237.734 166.69 237.952 166.772C238.185 166.872 238.54 166.942 239.019 166.981L244.376 167.426C244.854 167.466 245.209 167.455 245.438 167.394C245.683 167.35 245.853 167.236 245.949 167.051C246.043 166.882 246.107 166.599 246.14 166.2C246.144 166.152 246.193 166.132 246.289 166.14C246.385 166.148 246.431 166.176 246.427 166.224C246.391 166.654 246.355 166.989 246.319 167.226L246.182 168.588L246.099 169.881C246.094 170.138 246.074 170.473 246.039 170.888C246.037 170.92 245.987 170.932 245.892 170.924C245.796 170.916 245.75 170.896 245.752 170.864C245.785 170.465 245.762 170.166 245.682 169.967C245.602 169.768 245.446 169.626 245.212 169.543C244.994 169.46 244.646 169.399 244.167 169.36L241.799 169.163L241.426 173.659L243.842 173.86C244.32 173.9 244.674 173.889 244.904 173.828C245.148 173.784 245.319 173.67 245.414 173.485C245.508 173.316 245.572 173.033 245.605 172.634C245.609 172.586 245.659 172.566 245.755 172.574C245.85 172.582 245.896 172.61 245.892 172.658C245.856 173.088 245.821 173.422 245.785 173.66L245.648 175.022L245.564 176.315C245.559 176.572 245.539 176.907 245.505 177.322C245.502 177.354 245.453 177.366 245.357 177.358C245.262 177.35 245.215 177.33 245.218 177.298C245.251 176.899 245.228 176.6 245.148 176.401C245.068 176.202 244.911 176.06 244.677 175.977C244.459 175.894 244.111 175.833 243.633 175.793L238.323 175.352C237.845 175.313 237.483 175.315 237.239 175.359C237.01 175.404 236.848 175.519 236.753 175.704C236.657 175.888 236.593 176.18 236.56 176.579Z" fill="black"/>
<path d="M234.557 182.596C234.789 181.665 235.212 180.896 235.825 180.291C236.453 179.689 237.189 179.287 238.031 179.085C238.888 178.887 239.76 178.899 240.644 179.12C241.653 179.372 242.445 179.833 243.02 180.504C243.606 181.195 243.973 181.971 244.12 182.833C244.28 183.713 244.257 184.565 244.051 185.388C243.815 186.335 243.384 187.101 242.759 187.687C242.131 188.289 241.397 188.683 240.559 188.87C239.737 189.06 238.906 189.05 238.068 188.841C237.137 188.608 236.364 188.168 235.751 187.52C235.134 186.888 234.72 186.133 234.511 185.256C234.316 184.383 234.332 183.496 234.557 182.596ZM234.848 183.411C234.677 184.094 234.85 184.69 235.366 185.198C235.879 185.722 236.717 186.129 237.881 186.42C238.921 186.679 239.866 186.759 240.716 186.658C241.562 186.572 242.249 186.331 242.776 185.935C243.3 185.555 243.634 185.078 243.777 184.503C243.952 183.805 243.796 183.205 243.311 182.705C242.826 182.204 242.025 181.814 240.907 181.535C239.898 181.283 238.957 181.188 238.084 181.251C237.222 181.332 236.506 181.558 235.936 181.926C235.362 182.311 234.999 182.806 234.848 183.411Z" fill="black"/>
<path d="M229.549 198.487C229.53 198.531 229.477 198.535 229.388 198.498C229.3 198.461 229.265 198.42 229.283 198.376L230.354 195.806C230.409 195.673 230.488 195.567 230.59 195.488C230.701 195.43 230.939 195.357 231.306 195.267C231.682 195.198 232.31 195.104 233.191 194.986C233.971 194.86 234.548 194.745 234.921 194.64C235.309 194.542 235.6 194.403 235.796 194.225C236.006 194.053 236.185 193.789 236.333 193.435L236.398 193.28L233.939 192.255C233.495 192.071 233.151 191.962 232.905 191.929C232.667 191.916 232.478 191.976 232.336 192.108C232.188 192.254 232.038 192.512 231.884 192.881C231.865 192.926 231.812 192.929 231.723 192.892C231.635 192.856 231.599 192.815 231.618 192.771C231.784 192.372 231.921 192.065 232.028 191.849L232.548 190.662L233.052 189.39C233.13 189.162 233.254 188.842 233.427 188.428C233.445 188.384 233.499 188.38 233.587 188.417C233.676 188.454 233.711 188.495 233.693 188.539C233.533 188.923 233.453 189.219 233.453 189.427C233.453 189.635 233.544 189.812 233.726 189.957C233.923 190.108 234.243 190.276 234.686 190.461L239.649 192.528C240.092 192.713 240.429 192.818 240.66 192.845C240.907 192.879 241.103 192.822 241.251 192.676C241.399 192.529 241.55 192.271 241.703 191.902C241.716 191.872 241.766 191.876 241.855 191.913C241.943 191.95 241.982 191.983 241.969 192.013C241.803 192.411 241.667 192.719 241.559 192.934L241.011 194.188L240.452 195.593C240.368 195.835 240.237 196.17 240.059 196.599C240.047 196.628 239.996 196.625 239.908 196.588C239.819 196.551 239.781 196.518 239.793 196.488C239.978 196.045 240.072 195.694 240.075 195.436C240.088 195.198 239.998 194.996 239.808 194.83C239.632 194.67 239.315 194.495 238.857 194.304L236.774 193.437L236.33 194.629C236.25 194.821 236.291 195.055 236.453 195.331C236.616 195.606 236.817 195.872 237.057 196.128C237.946 197.157 238.514 197.957 238.761 198.528C239.023 199.105 239.053 199.638 238.85 200.125C238.684 200.524 238.465 200.779 238.193 200.891C237.93 201.024 237.65 201.029 237.355 200.906C237.059 200.783 236.856 200.586 236.744 200.314C236.625 200.056 236.637 199.758 236.779 199.418C236.859 199.226 237.007 199.037 237.223 198.849C237.251 198.826 237.308 198.772 237.395 198.687C237.483 198.602 237.554 198.493 237.609 198.36C237.695 198.153 237.663 197.897 237.513 197.592C237.372 197.308 237.109 196.939 236.727 196.485C236.352 196.051 236.105 195.688 235.984 195.395C235.78 195.761 235.562 196.034 235.331 196.215C235.093 196.411 234.799 196.557 234.447 196.653C234.103 196.77 233.574 196.896 232.859 197.031C232.802 197.043 232.497 197.089 231.943 197.17C231.419 197.264 231.03 197.344 230.777 197.412C230.523 197.48 230.294 197.592 230.09 197.75C229.886 197.907 229.705 198.153 229.549 198.487Z" fill="black"/>
<defs>
<filter id="filter0_bd" x="0.360596" y="0" width="328" height="328" filterUnits="userSpaceOnUse" color-interpolation-filters="sRGB">
<feFlood flood-opacity="0" result="BackgroundImageFix"/>
<feGaussianBlur in="BackgroundImage" stdDeviation="5"/>
<feComposite in2="SourceAlpha" operator="in" result="effect1_backgroundBlur"/>
<feColorMatrix in="SourceAlpha" type="matrix" values="0 0 0 0 0 0 0 0 0 0 0 0 0 0 0 0 0 0 127 0" result="hardAlpha"/>
<feMorphology radius="38" operator="dilate" in="SourceAlpha" result="effect2_dropShadow"/>
<feOffset/>
<feGaussianBlur stdDeviation="30"/>
<feColorMatrix type="matrix" values="0 0 0 0 1 0 0 0 0 1 0 0 0 0 1 0 0 0 0.7 0"/>
<feBlend mode="normal" in2="effect1_backgroundBlur" result="effect2_dropShadow"/>
<feBlend mode="normal" in="SourceGraphic" in2="effect2_dropShadow" result="shape"/>
</filter>
</defs>
</svg>
