<svg width="32" height="33" viewBox="0 0 32 33" fill="none" xmlns="http://www.w3.org/2000/svg">
<path d="M30.6641 9.88982C29.8081 7.87295 28.5869 6.0769 27.0346 4.55187C26.8341 4.35497 26.5171 4.36283 26.3261 4.5696C26.1353 4.77623 26.1429 5.10327 26.3433 5.30005C29.3448 8.24884 30.9979 12.2264 30.9979 16.5C30.9979 25.0283 24.2699 31.9666 15.9999 31.9666C7.73 31.9666 1.00206 25.0283 1.00206 16.5C1.00206 7.97169 7.73013 1.03338 16 1.03338C19.021 1.03338 21.9331 1.95544 24.4214 3.69974C24.6502 3.86016 24.9618 3.79887 25.1174 3.56297C25.273 3.32694 25.2136 3.00558 24.9848 2.84515C22.3296 0.983877 19.2228 0 16 0C11.7262 0 7.70831 1.71626 4.68631 4.83276C1.66431 7.9492 0 12.0927 0 16.5C0 20.9073 1.66431 25.0508 4.68631 28.1672C7.70831 31.2837 11.7262 33 16 33C20.2738 33 24.2917 31.2837 27.3137 28.1672C30.3357 25.0508 32 20.9073 32 16.5C32 14.2021 31.5505 11.9781 30.6641 9.88982Z" fill="#D6D6D6"/>
<path d="M23.2708 6.99645L13.6348 11.6223C13.3839 11.7427 13.2752 12.0502 13.3921 12.3089C13.5089 12.5676 13.8069 12.6798 14.0577 12.5593L20.0018 9.70567L17.112 12.1182L10.4803 17.6545L6.85305 16.0179L11.9359 13.5778C12.1868 13.4573 12.2955 13.15 12.1787 12.8913C12.0619 12.6326 11.7637 12.5203 11.5131 12.6409L6.0418 15.2675C5.75093 15.4071 5.5673 15.7125 5.57468 16.0432C5.58186 16.3667 5.77149 16.6579 6.05893 16.7876L10.1091 18.6148L11.2952 25.9543C11.3682 26.4081 11.9641 26.5374 12.2086 26.1525L15.5733 20.8563L21.9365 23.9186C22.4463 24.1642 23.053 23.7889 23.0859 23.2118L23.9824 7.49499C23.9833 7.48043 23.9832 7.46548 23.9829 7.45084C23.9729 7.08507 23.5919 6.84331 23.2708 6.99645ZM11.8761 23.2631L11.1009 18.466L18.9989 11.8725L12.9541 18.8618C12.8997 18.9247 12.8593 19.0039 12.8406 19.0861L11.8761 23.2631ZM12.9406 23.1148L13.6731 19.9419L14.6558 20.4149L12.9406 23.1148ZM15.2107 19.5415L14.1502 19.0313L19.3671 12.9994L18.6125 14.1871L15.2107 19.5415ZM22.1023 22.8582L16.1282 19.9831L22.8717 9.36871L22.1023 22.8582Z" fill="#D6D6D6"/>
</svg>
