<svg width="49" height="49" viewBox="0 0 49 49" fill="none" xmlns="http://www.w3.org/2000/svg">
<g filter="url(#filter0_d)">
<circle cx="24.5" cy="24.5" r="14.5" fill="#C4C4C4"/>
</g>
<g clip-path="url(#clip0)">
<path d="M24.4999 40.4834C33.3272 40.4834 40.4832 33.3274 40.4832 24.5001C40.4832 15.6728 33.3272 8.51685 24.4999 8.51685C15.6726 8.51685 8.5166 15.6728 8.5166 24.5001C8.5166 33.3274 15.6726 40.4834 24.4999 40.4834Z" fill="#47B0D3"/>
<path d="M26.7045 39.9323C17.8772 39.9323 10.7212 32.7763 10.7212 23.949C10.7212 16.8597 15.3372 10.8494 21.7272 8.75708C14.2216 10.0699 8.5166 16.6185 8.5166 24.5001C8.5166 33.3275 15.6726 40.4834 24.4999 40.4834C26.2379 40.4834 27.9106 40.205 29.4771 39.6921C28.5765 39.8495 27.6501 39.9323 26.7045 39.9323Z" fill="#3298BA"/>
<path d="M20.1579 33.8695L18.8887 26.2538L32.2161 15.4648L20.1579 33.8695Z" fill="#B2B2B2"/>
<path d="M21.7442 27.2057L20.1577 33.8695L32.2159 15.4648L21.7442 27.2057Z" fill="#CCCCCC"/>
<path d="M21.7441 27.2057L32.2158 15.4648L31.2912 31.1817C31.278 31.4054 31.0433 31.5454 30.8402 31.4506L21.7441 27.2057Z" fill="#E5E5E5"/>
<path d="M32.2159 15.4648L14.4485 23.7358C14.2008 23.8512 14.205 24.2047 14.4553 24.3142L18.8885 26.2536L32.2159 15.4648Z" fill="#E5E5E5"/>
<g filter="url(#filter1_d)">
<path d="M39.6224 17.8898C38.7396 15.8729 37.4802 14.0769 35.8794 12.5519C35.6727 12.355 35.3457 12.3628 35.1488 12.5696C34.952 12.7762 34.9599 13.1033 35.1665 13.3C38.2618 16.2488 39.9666 20.2264 39.9666 24.5C39.9666 33.0283 33.0283 39.9666 24.4999 39.9666C15.9716 39.9666 9.03338 33.0283 9.03338 24.5C9.03338 15.9717 15.9717 9.03338 24.5 9.03338C27.6154 9.03338 30.6185 9.95544 33.1845 11.6997C33.4205 11.8602 33.7419 11.7989 33.9024 11.563C34.0628 11.3269 34.0015 11.0056 33.7655 10.8452C31.0274 8.98388 27.8235 8 24.5 8C20.0927 8 15.9492 9.71626 12.8328 12.8328C9.71632 15.9492 8 20.0927 8 24.5C8 28.9073 9.71632 33.0508 12.8328 36.1672C15.9492 39.2837 20.0927 41 24.5 41C28.9073 41 33.0508 39.2837 36.1672 36.1672C39.2837 33.0508 41 28.9073 41 24.5C41 22.2021 40.5365 19.9781 39.6224 17.8898Z" fill="black"/>
</g>
<path d="M32.7322 15.4509C32.722 15.0851 32.3291 14.8433 31.9979 14.9964L22.0608 19.6223C21.802 19.7427 21.69 20.0502 21.8104 20.3089C21.9308 20.5676 22.2383 20.6798 22.4969 20.5593L28.6267 17.7057L25.6466 20.1182L18.8077 25.6545L15.0671 24.0179L20.3088 21.5778C20.5675 21.4574 20.6796 21.15 20.5591 20.8913C20.4387 20.6326 20.1312 20.5203 19.8727 20.6409L14.2305 23.2675C13.9305 23.4071 13.7412 23.7125 13.7488 24.0432C13.7562 24.3667 13.9517 24.6579 14.2481 24.7876L18.4248 26.6148L19.6481 33.9544C19.7234 34.4082 20.3379 34.5374 20.5899 34.1526L24.0598 28.8564L30.6219 31.9187C31.1476 32.1642 31.7733 31.789 31.8072 31.2119L32.7316 15.4951C32.7327 15.4806 32.7326 15.4656 32.7322 15.4509ZM23.6859 27.5415L22.5923 27.0313L27.9721 20.9994L27.194 22.1871L23.6859 27.5415ZM22.1002 27.9419L23.1137 28.4149L21.3448 31.1148L22.1002 27.9419ZM27.5925 19.8724L21.3587 26.8618C21.3027 26.9247 21.261 27.0038 21.2417 27.086L20.2471 31.263L19.4476 26.4659L27.5925 19.8724ZM30.7929 30.8582L24.6321 27.9831L31.5864 17.3687L30.7929 30.8582Z" fill="black"/>
</g>
<defs>
<filter id="filter0_d" x="0" y="0" width="49" height="49" filterUnits="userSpaceOnUse" color-interpolation-filters="sRGB">
<feFlood flood-opacity="0" result="BackgroundImageFix"/>
<feColorMatrix in="SourceAlpha" type="matrix" values="0 0 0 0 0 0 0 0 0 0 0 0 0 0 0 0 0 0 127 0" result="hardAlpha"/>
<feOffset/>
<feGaussianBlur stdDeviation="5"/>
<feComposite in2="hardAlpha" operator="out"/>
<feColorMatrix type="matrix" values="0 0 0 0 1 0 0 0 0 1 0 0 0 0 1 0 0 0 1 0"/>
<feBlend mode="normal" in2="BackgroundImageFix" result="effect1_dropShadow"/>
<feBlend mode="normal" in="SourceGraphic" in2="effect1_dropShadow" result="shape"/>
</filter>
<filter id="filter1_d" x="-2" y="-2" width="53" height="53" filterUnits="userSpaceOnUse" color-interpolation-filters="sRGB">
<feFlood flood-opacity="0" result="BackgroundImageFix"/>
<feColorMatrix in="SourceAlpha" type="matrix" values="0 0 0 0 0 0 0 0 0 0 0 0 0 0 0 0 0 0 127 0" result="hardAlpha"/>
<feOffset/>
<feGaussianBlur stdDeviation="5"/>
<feComposite in2="hardAlpha" operator="out"/>
<feColorMatrix type="matrix" values="0 0 0 0 0 0 0 0 0 0 0 0 0 0 0 0 0 0 0.25 0"/>
<feBlend mode="normal" in2="BackgroundImageFix" result="effect1_dropShadow"/>
<feBlend mode="normal" in="SourceGraphic" in2="effect1_dropShadow" result="shape"/>
</filter>
<clipPath id="clip0">
<rect width="33" height="33" fill="white" transform="translate(8 8)"/>
</clipPath>
</defs>
</svg>
