<svg width="33" height="33" viewBox="0 0 33 33" fill="none" xmlns="http://www.w3.org/2000/svg">
<g clip-path="url(#clip0)">
<path d="M19.8074 0.50708H13.1928C7.10421 0.50708 2.16846 5.34971 2.16846 11.3234V16.1907C2.16846 20.626 4.88967 24.437 8.78309 26.1062V31.8745L13.744 27.0071H19.8074C25.896 27.0071 30.8317 22.1644 30.8317 16.1908V11.3235C30.8317 5.34964 25.896 0.50708 19.8074 0.50708Z" fill="#665CAC"/>
<path d="M10.988 29.7112V26.1062C7.09461 24.4371 4.37333 20.626 4.37333 16.1907V11.3234C4.37333 5.34964 9.30915 0.50708 15.3977 0.50708H13.1928C7.10421 0.50708 2.16846 5.34971 2.16846 11.3234V16.1907C2.16846 20.626 4.88967 24.437 8.78309 26.1062V31.8745L10.988 29.7112Z" fill="#523494"/>
<path d="M23.7845 17.5881L19.8868 16.8233L18.0377 18.6376C14.9095 17.3369 13.2558 15.7144 11.8014 12.5189L13.6506 10.7045L12.871 6.88034L10.1864 6.39404C9.59906 6.52501 9.04083 6.814 8.58354 7.26273C7.69396 8.13553 7.5704 9.34778 7.75306 10.4871C8.16627 13.0643 9.44515 16.5121 11.6857 18.719C11.6911 18.7243 11.6964 18.7298 11.7018 18.7351C11.7072 18.7404 11.7128 18.7456 11.7182 18.7509C13.9676 20.9492 17.4817 22.2039 20.1084 22.6093C21.2697 22.7886 22.5052 22.6673 23.3948 21.7945C23.8522 21.3458 24.1467 20.7982 24.2802 20.222L23.7845 17.5881Z" fill="white"/>
<path d="M21.1479 21.5897C18.5211 21.1842 15.0071 19.9295 12.7577 17.7312C12.7523 17.7259 12.7467 17.7208 12.7412 17.7155C12.7358 17.7101 12.7306 17.7046 12.7252 17.6993C10.4846 15.4924 9.20577 12.0446 8.7925 9.4674C8.64606 8.55419 8.69685 7.59431 9.18063 6.7998C8.96858 6.92881 8.76755 7.08216 8.58354 7.26283C7.69396 8.13562 7.5704 9.34788 7.75306 10.4872C8.16627 13.0644 9.44515 16.5122 11.6857 18.7191C11.6911 18.7244 11.6964 18.7299 11.7018 18.7352C11.7072 18.7405 11.7128 18.7456 11.7182 18.7509C13.9676 20.9492 17.4817 22.2039 20.1084 22.6094C21.2697 22.7886 22.5052 22.6674 23.3948 21.7946C23.5789 21.614 23.7353 21.4168 23.8667 21.2087C23.0569 21.6835 22.0787 21.7334 21.1479 21.5897Z" fill="#E5E5E5"/>
<path d="M28.0493 3.39728C27.8496 3.19733 27.5223 3.19398 27.3186 3.3902C27.1148 3.58617 27.1115 3.90716 27.3114 4.10712C29.2481 6.04559 30.3147 8.60839 30.3147 11.3233V16.1907C30.3147 21.8753 25.6011 26.5 19.8071 26.5H13.7437C13.6067 26.5 13.4753 26.5535 13.3783 26.6485L9.29957 30.6504V26.1061C9.29957 25.9047 9.17788 25.7222 8.98974 25.6416C5.15968 23.9996 2.68494 20.2899 2.68494 16.1907V11.3233C2.68494 5.63878 7.39859 1.01401 13.1925 1.01401H19.8072C21.8721 1.01401 23.8706 1.60122 25.5864 2.71192C25.8246 2.86622 26.1451 2.80165 26.3023 2.56799C26.4594 2.33421 26.3938 2.01979 26.1556 1.86556C24.2702 0.645144 22.075 0 19.8071 0H13.1925C6.82876 0 1.65137 5.0797 1.65137 11.3233V16.1907C1.65137 20.5813 4.23645 24.5652 8.266 26.4326V31.8744C8.266 32.3156 8.829 32.5459 9.14823 32.233L13.9578 27.5141H19.8072C26.1709 27.5141 31.3483 22.4344 31.3483 16.1908V11.3234C31.3482 8.34134 30.1766 5.52641 28.0493 3.39728Z" fill="black"/>
<path d="M20.1885 22.1085C17.7182 21.7271 14.2916 20.5505 12.0834 18.3924L12.0515 18.3612C11.0357 17.3606 10.1302 15.9804 9.43311 14.3698C9.32148 14.112 9.01816 13.9919 8.75545 14.1013C8.49274 14.2107 8.37021 14.5084 8.48178 14.7661C9.23002 16.4947 10.2113 17.9853 11.3213 19.0789L11.3532 19.1101C13.7375 21.4401 17.3975 22.7042 20.0278 23.1102C20.3579 23.1611 20.6758 23.1865 20.9806 23.1865C22.1144 23.1865 23.0637 22.8361 23.7599 22.153C24.2702 21.6524 24.6243 21.0234 24.7838 20.3343C24.7994 20.2671 24.8008 20.1977 24.788 20.13L24.2924 17.496C24.254 17.292 24.0928 17.1315 23.8856 17.0908L19.9879 16.326C19.8185 16.2929 19.6434 16.3448 19.5211 16.4647L17.9208 18.0349C15.2235 16.8536 13.733 15.3883 12.4201 12.6285L14.0156 11.0632C14.1377 10.9433 14.1907 10.7715 14.1569 10.6052L13.3774 6.78101C13.3359 6.57757 13.1724 6.41948 12.9645 6.38186L10.2798 5.89569C10.2109 5.88304 10.14 5.88462 10.0716 5.89986C9.36904 6.05644 8.72799 6.4038 8.21778 6.90445C7.33452 7.77111 6.9971 9.03737 7.24228 10.5661C7.35392 11.2621 7.51982 11.9832 7.73541 12.7094C7.81534 12.9783 8.1026 13.1323 8.37614 13.0544C8.6502 12.976 8.80759 12.6946 8.7278 12.4257C8.52438 11.7408 8.36815 11.062 8.26335 10.4084C8.06896 9.19603 8.29951 8.25835 8.94874 7.62136C9.29686 7.27976 9.72824 7.03604 10.2016 6.91254L12.4327 7.31669L13.0893 10.538L11.4357 12.1603C11.2843 12.3089 11.242 12.5337 11.3293 12.7255C12.8325 16.0285 14.596 17.7574 17.8358 19.1043C18.0299 19.1848 18.254 19.142 18.4029 18.9959L20.0563 17.3735L23.3395 18.0178L23.7515 20.2068C23.6256 20.6711 23.3772 21.0944 23.0291 21.436C22.3799 22.073 21.424 22.2993 20.1885 22.1085Z" fill="black"/>
<path d="M17.6022 9.19385C17.3168 9.19385 17.0854 9.42081 17.0854 9.70088C17.0854 9.98096 17.3168 10.2079 17.6022 10.2079C18.837 10.2079 19.8415 11.1935 19.8415 12.405C19.8415 12.6812 20.0767 12.912 20.3583 12.912C20.6399 12.912 20.8751 12.6812 20.8751 12.405C20.8751 10.6344 19.4069 9.19385 17.6022 9.19385Z" fill="black"/>
<path d="M22.4763 13.4498C22.7562 13.4794 23.0157 13.2766 23.0466 13.0014C23.0688 12.8045 23.08 12.6037 23.08 12.4049C23.08 9.44143 20.6227 7.03052 17.6022 7.03052C17.3996 7.03052 17.195 7.04152 16.9943 7.06321C16.7107 7.09394 16.5061 7.34449 16.5373 7.6228C16.5687 7.90104 16.8238 8.10106 17.1077 8.07115C17.2709 8.05344 17.4372 8.04446 17.6022 8.04446C20.0527 8.04446 22.0463 10.0005 22.0463 12.4048C22.0463 12.5667 22.0372 12.7299 22.0191 12.89C21.9881 13.1685 22.1926 13.419 22.4763 13.4498Z" fill="black"/>
<path d="M25.0796 14.1442C25.2161 13.5776 25.2852 12.9926 25.2852 12.4051C25.2852 8.24884 21.8388 4.86743 17.6026 4.86743C17.4064 4.86743 17.2079 4.87483 17.0124 4.88931C16.7278 4.9105 16.5145 5.15396 16.5362 5.43321C16.5578 5.71247 16.8048 5.92121 17.0905 5.90041C17.2601 5.88776 17.4325 5.88144 17.6027 5.88144C21.269 5.88144 24.2517 8.80792 24.2517 12.405C24.2517 12.914 24.1919 13.4206 24.0738 13.9109C24.0098 14.1765 24.1793 14.4504 24.4483 14.5185C24.7248 14.5885 25.014 14.4165 25.0796 14.1442Z" fill="black"/>
</g>
<defs>
<clipPath id="clip0">
<rect width="33" height="32.3774" fill="white"/>
</clipPath>
</defs>
</svg>
