<svg width="33" height="33" viewBox="0 0 33 33" fill="none" xmlns="http://www.w3.org/2000/svg">
<g clip-path="url(#clip0)">
<path d="M28.0496 3.46262C27.8498 3.25881 27.5225 3.2554 27.3188 3.4554C27.115 3.65514 27.1117 3.9823 27.3116 4.1861C29.2483 6.16185 30.315 8.77394 30.315 11.5411V16.5021C30.315 22.2959 25.6013 27.0097 19.8073 27.0097H13.744C13.607 27.0097 13.4755 27.0641 13.3785 27.161L9.29981 31.2398V26.6082C9.29981 26.4028 9.17813 26.2169 8.98999 26.1347C5.15992 24.4611 2.68518 20.6801 2.68518 16.5021V11.5411C2.68518 5.74722 7.39883 1.03351 13.1928 1.03351H19.8074C21.8724 1.03351 23.8708 1.63202 25.5866 2.76407C25.8248 2.92134 26.1453 2.85553 26.3026 2.61738C26.4597 2.37909 26.3941 2.05863 26.1559 1.90143C24.2704 0.657551 22.0753 0 19.8073 0H13.1927C6.829 0 1.65161 5.17739 1.65161 11.5411V16.5021C1.65161 20.9771 4.2367 25.0376 8.26624 26.9409V32.4874C8.26624 32.937 8.82924 33.1718 9.14848 32.8529L13.958 28.0432H19.8074C26.1711 28.0432 31.3485 22.8658 31.3485 16.5021V11.5412C31.3485 8.50175 30.1769 5.63269 28.0496 3.46262Z" fill="#D6D6D6"/>
<path d="M24.788 20.5171L24.2923 17.8325C24.254 17.6246 24.0928 17.461 23.8855 17.4195L19.9878 16.64C19.8184 16.6063 19.6433 16.6592 19.5211 16.7814L17.9207 18.3817C15.2234 17.1778 13.733 15.6843 12.4201 12.8714L14.0155 11.276C14.1376 11.1538 14.1907 10.9787 14.1569 10.8092L13.3774 6.91148C13.3359 6.70413 13.1724 6.543 12.9644 6.50465L10.2798 6.00913C10.2109 5.99624 10.14 5.99785 10.0716 6.01339C9.36904 6.17297 8.72799 6.52701 8.21778 7.03729C7.33452 7.92062 6.9971 9.21123 7.24228 10.7694C7.35392 11.4788 7.51982 12.2137 7.73541 12.9538C7.81534 13.2279 8.1026 13.385 8.37614 13.3055C8.6502 13.2256 8.80759 12.9388 8.7278 12.6648C8.52438 11.9666 8.36815 11.2748 8.26335 10.6086C8.06896 9.37294 8.29951 8.41723 8.94874 7.768C9.29686 7.41982 9.72824 7.17142 10.2016 7.04554L12.4327 7.45746L13.0893 10.7407L11.4357 12.3942C11.2843 12.5457 11.242 12.7748 11.3293 12.9703C12.8325 16.3368 14.596 18.0989 17.8358 19.4717C18.0299 19.5538 18.254 19.5101 18.4029 19.3613L20.0564 17.7077L23.3396 18.3643L23.7516 20.5955C23.6257 21.0687 23.3772 21.5001 23.0292 21.8483C22.3797 22.4974 21.4238 22.728 20.1883 22.5335C17.718 22.1448 14.2915 20.9456 12.0832 18.746L12.0513 18.7142C11.0355 17.6943 10.13 16.2875 9.43292 14.646C9.32128 14.3833 9.01797 14.2609 8.75526 14.3723C8.49255 14.4839 8.37002 14.7873 8.48159 15.05C9.22982 16.8117 10.2111 18.331 11.3211 19.4457L11.353 19.4775C13.7373 21.8523 17.3973 23.1406 20.0276 23.5545C20.3577 23.6064 20.6756 23.6322 20.9804 23.6322C22.1142 23.6322 23.0635 23.2751 23.7597 22.5789C24.27 22.0687 24.6241 21.4276 24.7836 20.7252C24.7992 20.6569 24.8007 20.5861 24.788 20.5171Z" fill="#D6D6D6"/>
<path d="M17.6025 9.37061C17.317 9.37061 17.0857 9.60193 17.0857 9.88739C17.0857 10.1729 17.317 10.4042 17.6025 10.4042C18.8373 10.4042 19.8418 11.4087 19.8418 12.6435C19.8418 12.9251 20.077 13.1603 20.3586 13.1603C20.6402 13.1603 20.8753 12.9251 20.8753 12.6435C20.8753 10.8388 19.4071 9.37061 17.6025 9.37061Z" fill="#D6D6D6"/>
<path d="M17.6022 7.16577C17.3996 7.16577 17.195 7.17699 16.9943 7.19909C16.7106 7.23042 16.5061 7.48578 16.5373 7.76944C16.5687 8.05303 16.8238 8.2569 17.1077 8.22641C17.2709 8.20837 17.4372 8.19921 17.6022 8.19921C20.0527 8.19921 22.0463 10.1929 22.0463 12.6434C22.0463 12.8084 22.0372 12.9747 22.0191 13.1379C21.9879 13.4217 22.1925 13.677 22.4762 13.7083C22.7561 13.7386 23.0156 13.5318 23.0465 13.2514C23.0686 13.0507 23.0798 12.846 23.0798 12.6434C23.08 9.62305 20.6227 7.16577 17.6022 7.16577Z" fill="#D6D6D6"/>
<path d="M17.6024 4.96094C17.4062 4.96094 17.2077 4.96848 17.0121 4.98324C16.7276 5.00483 16.5143 5.25297 16.5359 5.5376C16.5576 5.82222 16.8045 6.03498 17.0903 6.01378C17.2599 6.00089 17.4322 5.99444 17.6024 5.99444C21.2687 5.99444 24.2515 8.97721 24.2515 12.6435C24.2515 13.1623 24.1916 13.6786 24.0736 14.1783C24.0096 14.449 24.179 14.7282 24.4481 14.7976C24.7245 14.8689 25.0138 14.6936 25.0793 14.416C25.2158 13.8385 25.2849 13.2423 25.2849 12.6435C25.285 8.40738 21.8386 4.96094 17.6024 4.96094Z" fill="#D6D6D6"/>
</g>
<defs>
<clipPath id="clip0">
<rect width="33" height="33" fill="white"/>
</clipPath>
</defs>
</svg>
